/* XPM */
static char *_629042568737[] = {
/* columns rows colors chars-per-pixel */
"50 59 210 2 ",
"   c #375710",
".  c #385B0A",
"X  c #2F6301",
"o  c #3A6E01",
"O  c #366907",
"+  c #3D7C05",
"@  c #3A7609",
"#  c #3B7412",
"$  c #3F7B25",
"%  c #474D00",
"&  c #5D4300",
"*  c #584C03",
"=  c #5C5101",
"-  c #555A02",
";  c #465F13",
":  c #6D4B00",
">  c #684801",
",  c #734F01",
"<  c #685705",
"1  c #735400",
"2  c #7B5501",
"3  c #755C02",
"4  c #7A5D01",
"5  c #7A5A09",
"6  c #536A01",
"7  c #576707",
"8  c #477601",
"9  c #4A7301",
"0  c #417C03",
"q  c #447C0B",
"w  c #447709",
"e  c #527306",
"r  c #416012",
"t  c #536E1B",
"y  c #427C17",
"u  c #6C6B0A",
"i  c #686405",
"p  c #7C6402",
"a  c #6F7807",
"s  c #547F28",
"d  c #825D03",
"f  c #8A5C00",
"g  c #825B05",
"h  c #836402",
"j  c #8C6B05",
"k  c #886907",
"l  c #946B0A",
"z  c #9A7405",
"x  c #9C7B0C",
"c  c #9E7509",
"v  c #807F1E",
"b  c #997E15",
"n  c #A07A09",
"m  c #AD7F0B",
"M  c #A57906",
"N  c #A07C15",
"B  c #3D8402",
"V  c #3F8C05",
"C  c #3E9503",
"Z  c #3D9A02",
"A  c #3F8325",
"S  c #438304",
"D  c #4A8202",
"F  c #428B03",
"G  c #4A8B06",
"H  c #43840A",
"J  c #4C850B",
"K  c #458A0A",
"L  c #4B8C0B",
"P  c #518709",
"I  c #439202",
"U  c #4C9203",
"Y  c #449C02",
"T  c #4A9D04",
"R  c #46920B",
"E  c #4C930B",
"W  c #449A0B",
"Q  c #4C9A0B",
"!  c #529107",
"~  c #539B03",
"^  c #53930D",
"/  c #549A0C",
"(  c #5B970D",
")  c #458911",
"_  c #4C8C13",
"`  c #4B831C",
"'  c #4B8718",
"]  c #528D14",
"[  c #588D1A",
"{  c #4D9210",
"}  c #4B9A11",
"|  c #4F9019",
" . c #539313",
".. c #529C14",
"X. c #5A9C12",
"o. c #53941A",
"O. c #5B951B",
"+. c #5B991A",
"@. c #5A9615",
"#. c #64800B",
"$. c #718E0D",
"%. c #649C1C",
"&. c #659A1B",
"*. c #45A102",
"=. c #4CA203",
"-. c #4DA30C",
";. c #4BA70C",
":. c #54A403",
">. c #5BA304",
",. c #56AB01",
"<. c #5BAB03",
"1. c #55A30B",
"2. c #5BA40C",
"3. c #54AA0D",
"4. c #5DAC0C",
"5. c #55B00D",
"6. c #4DA212",
"7. c #54A414",
"8. c #5DA712",
"9. c #5CAC13",
"0. c #5EAB19",
"q. c #55A716",
"w. c #5BB218",
"e. c #65AA0C",
"r. c #6DB40B",
"t. c #63B508",
"y. c #62AC14",
"u. c #6AAC12",
"i. c #66A31A",
"p. c #6CAD1C",
"a. c #66A51A",
"s. c #72AE1F",
"d. c #76A313",
"f. c #64B414",
"g. c #6AB414",
"h. c #63B31B",
"j. c #6CB919",
"k. c #69B61C",
"l. c #74B41D",
"z. c #7BBD1C",
"x. c #74BA1B",
"c. c #4B8627",
"v. c #588724",
"b. c #559622",
"n. c #5B9B24",
"m. c #5A9729",
"M. c #589639",
"N. c #4E9525",
"B. c #649522",
"V. c #649E23",
"C. c #6A9C24",
"Z. c #649F2A",
"A. c #6A9426",
"S. c #7A9E2D",
"D. c #5CA522",
"F. c #5AA338",
"G. c #66A32A",
"H. c #6BA32A",
"J. c #6CAC2B",
"K. c #66A725",
"L. c #73A42C",
"P. c #75A627",
"I. c #64B924",
"U. c #69BA28",
"Y. c #70BF23",
"T. c #7CB723",
"R. c #6CA439",
"E. c #64A33B",
"W. c #74AB3F",
"Q. c #76AA35",
"!. c #7BC31A",
"~. c #6EC223",
"^. c #71C024",
"/. c #679E41",
"(. c #5EA243",
"). c #8A9217",
"_. c #94861A",
"`. c #A4800B",
"'. c #AC860D",
"]. c #A88005",
"[. c #B1870D",
"{. c #A78B16",
"}. c #AE951E",
"|. c #B3921E",
" X c #BB8E17",
".X c #BF9D26",
"XX c #81A92E",
"oX c #84BE24",
"OX c #80AF35",
"+X c #88BA39",
"@X c #CBA519",
"#X c #84C727",
"$X c #88B543",
"%X c #93A672",
"&X c #A2AC92",
"*X c #A9B29B",
"=X c #AFB8A3",
"-X c #B4BDA9",
";X c #BBC5B2",
":X c #C2CBBB",
">X c #CAD2C4",
",X c #D3DACE",
"<X c #D0D7CA",
"1X c #D8DED3",
"2X c #DBE0D6",
"3X c #DEE3D9",
"4X c #E1E6DD",
"5X c #E3E8DF",
"6X c #E7EAE3",
"7X c None",
/* pixels */
"7X7X7X7X7X7X7X7X7X7X7X7X7X7X7X7X7X7X7X7X7X7X7X7X7X7X7X7X7X7X7X7X7X7X7X7X7X7X7X7X7X7X7X7X7X7X7X7X7X7X",
"7X7X7X7X7X7X7X7X7X7X7X7X7X7X7X7X7X7X7X7X7X7X7X7X7X7X7X7X7X7X7X7X7X7X7X7X7X7X7X7X7X7X7X7X7X7X7X7X7X7X",
"7X7X7X7X7X7X7X7X7X7X7X7X7X7X7X7X7X7X7X7X7X7X7X7X7X7X7X7X7X7X7X7X7X7X7X7X7X7X7X7X7X7X7X7X7X7X7X7X7X7X",
"7X7X7X7X7X7X7X7X7X7X7X7X7X7X7X7X7X7X#XT.!.7X7X7X7X7X7XT.7X7Xs.s.P.T.7X7X7X7X7X7X7X7X7X7X7X7X7X7X7X7X",
"7X7X7X7X7X7X7X7X7X7X7X7X7X7X7X7X7Xl.y.<.,.<.e.r.j.p./ / Q 1...o.+.i.7X7X7X7X7X7X7X7X7X7X7X7X7X7X7X7X",
"7X7X7X7X7X7X7X7X7X7X7X7X7X7X7X7Xl.u.:.:.<.<.~ ~ ~ E Q I I I V { o.+.7X7X7X7X7X7X7X7X7X7X7X7X7X7X7X7X",
"7X7X7X7X7X7X7X7X7X7X7Xx.k.j.9.x.z.g.e.=.,.r.y.y.i.^ F ~ ~ F B V G E +.7X7X7X7X7X7X7X7X7X7X7X7X7X7X7X",
"7X7X7X7X7X7X7X7X9.;.Z W Z *.*.Z W 6.3.6.-.4.8.1.1.2.b. .U I V F U ~ >./ :.8.3.;.;.;.7X7X7X7X7X7X7X7X",
"7X7X7X7X7X7X7XT.h.7.R W C Z Z Z Z Y *.=.=.=.Y =.:.:.y.:.~ =.>.:.1.:.=.T :.1.=.*.;.;.=.3.7X7X7X7X7X7X",
"7X7X7X7X7X7X7X7X7Xl.h.7.7.} R Z Z Z =.,.:.Y =.Q Y >.>.,.=.Q e.g.8.8.4.4.f.0.E 3.=.1.k.g.j.7X7X7X7X7X",
"7X7X7X7X7X7X7X7X7X7X7XC.O.E / Y Z C Q :.=.Y T ..Q 7./ Q Y Q R L K / e.r.z.#XL.%.a.8.l.7X7X7X7X7X7X7X",
"7X7X7X7X7X7X7X7X7Xi.^ G L B B S B H Q 1.:.Y / / 7.Q R } } R V F @ q ) G !  .&.7X7X7X7X7X7X7X7X7X7X7X",
"7X7X7X7X7X7X7XH.C.L B B ) _ L J E U ..u.>.=.Y U G U B F H E E L H # H _ L | H L _ 7X7X7X7X7X7X7X7X7X",
"7X7X7X7X7XQ.V.n.| B B H ' B.&.e.:.:.f.!.e.=.T E U S H G ` +.+.o.&.y ` @.7XO.] ] o.K H 7X7X7X7X7X7X7X",
"7X7X7X7XJ.G.O.R.| B B _ o.L.p.>.5.k.~.f.q.E -. .! P J ] y O.C.L.C.7Xv.' q O. .] [ O.{ _ 7X7X7X7X7X7X",
"7X7X7XW.Q.L.V.W.o.@.] V.%.L.8.7.U.U.I.q.q.' E ^ D w J 0 # v.s c.c.' ' J 0 0 J + @ w &.+.7X7X7X7X7X7X",
"7X7X7X7X$XL.L.$XO.C.C.M.|  .7.w.U.D.D.D.G.N.# J o O B ) V R +./ C K { G 0 J L { K @ q B.7X7X7X7X7X7X",
"7X7X7X7X7X7X+X7X&.7XZ.$ ` X.a.0.D.n.N.J.W.J.# D X o F R Z :.t.<.Y C R L 0 ' _ _ o._ S ' 7X7X7X7X7X7X",
"7X7X7X7X7X7X7X7X7X7Xc.A N.D.a.D.b.b.N.J.7X#Xv.9 8 0 U } *.*.5.5.*.*.7.^ L ] ] b.n.n.O.[ A.7X7X7X7X7X",
"7X7X7X7X7X7X7X7X7XM.N.M.M.F.J.G.m.G./.+X7X7XC.e 6 8 E 0.;.*.3.w.;.*.9.y.&.i.+.O.V.H.H.C.S.7X7X7X7X7X",
"7X7X7X7X7X7X7X7X7X7X(.(.F.(./.E.7XR.7X7X7X7X7Xa 6 w X.h.9.;.w.U.I.w.f.x.oX7X7X7X7XL.7X7X7X7X7X7X7X7X",
"7X7X7X7X7X7X7X7X7X7X7X7X7X7X7X7X7X7X7X7X7X7X7Xa 7 6 d.7Xk.h.~.~.^.Y.j.7X7X7X7X7X7X7X7X7X7X7X7X7X7X7X",
"7X7X7X7X7X7X7X7X7X7X7X7X7X7X7X7X7X7X7X7X7X7X7Xu % i 7X7X!.7X7X7X7X#X7X7X7X7X7X7X7X7X7X7X7X7X7X7X7X7X",
"7X7X7X7X7X7X7X7X7X7X7X7X7X7X7X7X7X7X7X7X7X7X7X5 = - _.7X7X7X7X7X7X7X7X7X7X7X7X7X7X7X7X7X7X7X7X7X7X7X",
"7X7X7X7X7X7X7X7X7X7X7X7X7X7X7X7X7X7X7X7X7X7X7X5 & = 7X7X7X7X7X7X7X7X7X7X7X7X7X7X7X7X7X7X7X7X7X7X7X7X",
"7X7X7X7X7X7X7X7X7X7X7X7X7X7X7X7X7X7X7X7X7X7X7Xg & : 7X7X7X7X7X7X7X7X7X7X7X7X7X7X7X7X7X7X7X7X7X7X7X7X",
"7X7X7X7X7X7X7X7X7X7X7X7X7X7X7X7X7X7X7X7X7X7X7Xg : > 7X7X7X7X7X7X7X7X7X7X7X7X7X7X7X7X7X7X7X7X7X7X7X7X",
"7X7X7X7X7X7X7X7X7X7X7X7X7X7X7X7X7X7X7X7X7X7X7Xl , , 7X7X7X7X7X7X7X7X7X7X7X7X7X7X7X7X7X7X7X7X7X7X7X7X",
"7X7X7X7X7X7X7X7X7X7X7X7X7X7X7X7X7X7X7X7X7X7X7X[.f h 7X7X7X7X7X7X7X7X7X7X7X7X7X7X7X7X7X7X7X7X7X7X7X7X",
"7X7X7X7X7X7X7X7X7X7X7X7X7X7X7X7X7X7X7X7X7X7X7Xm f d 7X7X7X7X7X7X7X7X7X7X7X7X7X7X7X7X7X7X7X7X7X7X7X7X",
"7X7X7X7X7X7X7X7X7X7X7X7X7X7X7X7X7X7X7X7X7X7X7Xl : h  X7X7X7X7X7X7X7X7X7X7X7X7X7X7X7X7X7X7X7X7X7X7X7X",
"7X7X7X7X7X7X7X7X7X7X7X7X7X7X7X7X7X7X7X7X7X7X7Xl : 2 7X7X7X7X7X7X7X7X7X7X7X7X7X7X7X7X7X7X7X7X7X7X7X7X",
"7X7X7X7X7X7X7X7X7X7X7X7X7X7X7X7X7X7X7X7X7X7X7Xl 2 2 N 7X7X7X7X7X7X7X7X7X7X7X7X7X7X7X7X7X7X7X7X7X7X7X",
"7X7X7X7X7X7X7X7X7X7X7X7X7X7X7X7X7X7X7X7X7X7X7Xc 2 h {.7X7X7X7X7X7X7X7X7X7X7X7X7X7X7X7X7X7X7X7X7X7X7X",
"7X7X7X7X7X7X7X7X7X7X7X7X7X7X7X7X7X7X7X7X7X7X7Xm 2 c 7X7X7X7X7X7X7X7X7X7X7X7X7X7X7X7X7X7X7X7X7X7X7X7X",
"7X7X7X7X7X7X7X7X7X7X7X7X7X7X7X7X7X7X7X7X7X7X7Xl 2 n 7X7X7X7X7X7X7X7X7X7X7X7X7X7X7X7X7X7X7X7X7X7X7X7X",
"7X7X7X7X7X7X7X7X7X7X7X7X7X7X7X7X7X7X7X7X7X7X7Xx 1 2 |.7X7X7X7X7X7X7X7X7X7X7X7X7X7X7X7X7X7X7X7X7X7X7X",
"7X7X7X7X7X7X7X7X7X7X7X7X7X7X7X7X7X7X7X7X7X7X7X[.4 k .X7X7X7X7X7X7X7X7X7X7X7X7X7X7X7X7X7X7X7X7X7X7X7X",
"7X7X7X7X7X7X7X7X7X7X7X7X7X7X7X7X7X7X7X7X7X7X7X'.f x |.7X7X7X7X7X7X7X7X7X7X7X7X7X7X7X7X7X7X7X7X7X7X7X",
"7X7X7X7X7X7X7X7X7X7X7X7X7X7X7X7X7X7X7X7X7X7X7X`.2 j {.7X7X7X7X7X7X7X7X7X7X7X7X7X7X7X7X7X7X7X7X7X7X7X",
"7X7X7X7X7X7X7X7X7X7X7X7X7X7X7X7X7X7X7X7X7X7X7X`.< 3 `.7X7X7X7X7X7X7X7X7X7X7X7X7X7X7X7X7X7X7X7X7X7X7X",
"7X7X7X7X7X7X7X7X7X7X7X7X7X7X7X7X7X7X7X7X7X7X7Xk 3 4 _.7X7X7X7X7X7X7X7X7X7X7X7X7X7X7X7X7X7X7X7X7X7X7X",
"7X7X7X7X7X7X7X7X7X7X7X7X7X7X7X7X7X7X7X7X7X7X7Xk p p {.7X7X7X7X7X7X7X7X7X7X7X7X7X7X7X7X7X7X7X7X7X7X7X",
"7X7X7X7X7X7X7X7X7X7X7X7X7X7X7X7X7X7X7X7X7X7X7Xn h j |.7X7X7X7X7X7X7X7X7X7X7X7X7X7X7X7X7X7X7X7X7X7X7X",
"7X7X7X7X7X7X7X7X7X7X7X7X7X7X7X7X7X7X7X7X7X7X7X`.p 4 |.7X7X7X7X7X7X7X7X7X7X7X7X7X7X7X7X7X7X7X7X7X7X7X",
"7X7X7X7X7X7X7X7X7X7X7X7X7X7X7X7X7X7X7X7X7X7X@Xc j j {.7X7X7X7X7X7X7X7X7X7X7X7X7X7X7X7X7X7X7X7X7X7X7X",
"7X7X7X7X7X7X7X7X7X7X7X7X7X7X7X7X7X7X7X7X7X7X7X].j j {.7X7X7X7X7X7X7X7X7X7X7X7X7X7X7X7X7X7X7X7X7X7X7X",
"7X7X7X7X7X7X7X7X7X7X7X7X7X7X7X7X7X7X7X7X7X7X7XM 3 p [.7X7X7X7X7X7X7X7X7X7X7X7X7X7X7X7X7X7X7X7X7X7X7X",
"7X7X7X7X7X7X7X7X7X7X7X7X7X7X7X7X7X7X7X7X7X7X7Xl p 3 x 7X7X7X7X7X7X7X7X7X7X7X7X7X7X7X7X7X7X7X7X7X7X7X",
"7X7X7X7X7X7X7X7X7X7X7X7X7X7X7X7X7X7X7X7X7X7X7Xh 1 1 b 7X7X7X7X7X7X7X7X7X7X7X7X7X7X7X7X7X7X7X7X7X7X7X",
"7X7X7X7X7X7X7X7X7X7X7X7X7X7X7X7X7X7X7X7X7X7X7Xh > < _.7X7X7X7X7X7X7X7X7X7X7X7X7X7X7X7X7X7X7X7X7X7X7X",
"7X7X7X7X7X7X7X7X7X7X7X7X7X7X7X7X7X7X7X7X7X7X7X5 & * ).7X7X7X7X7X7X7X7X7X7X7X7X7X7X7X7X7X7X7X7X7X7X7X",
"7X7X7X7X7X7X7X7X7X7X7X7X7X7X7X7X7X7X7X7X7XOX).p < i $.7X7X7X7X7X7X7X7X7X7X7X7X7X7X7X7X7X7X7X7X7X7X7X",
"7X7X7X7X7X7X7X7X7X7X7X7X7X7X7X7X7X7X7X7X7X&.#.u ; 7 ( P.7X7X7X7X7X7X7X7X7X7X7X7X7X7X7X7X7X7X7X7X7X7X",
"7X7X7X7X7X7X7X7X7X7X7X7X7X7X7X7X7X7X7X7X7XA.w e . w P XX7X7X7X7X7X7X7X7X7X7X7X7X7X7X7X7X7X7X7X7X7X7X",
"7X7X7X7X7X7X7X7X7X7X7X7X7X7X7X6X4X4X1X,X:X%Xs r   r t %X:X>X,X2X4X6X6X7X7X7X7X7X7X7X7X7X7X7X7X7X7X7X",
"7X7X7X7X7X7X7X7X7X7X7X7X7X7X7X7X5X4X1X,X<X:X-X*X&X*X=X;X>X<X1X3X4X7X7X7X7X7X7X7X7X7X7X7X7X7X7X7X7X7X",
"7X7X7X7X7X7X7X7X7X7X7X7X7X7X7X7X7X7X7X7X7X7X7X7X7X7X7X7X7X7X7X7X7X7X7X7X7X7X7X7X7X7X7X7X7X7X7X7X7X7X",
"7X7X7X7X7X7X7X7X7X7X7X7X7X7X7X7X7X7X7X7X7X7X7X7X7X7X7X7X7X7X7X7X7X7X7X7X7X7X7X7X7X7X7X7X7X7X7X7X7X7X"
};
