/* XPM */
static char *_6253_9f92dcf20da822f99be1e70f4c3ffa95d8f65f9903c240cdf4114924bb650c59[] = {
/* columns rows colors chars-per-pixel */
"64 64 242 2 ",
"   c #010205",
".  c #01040B",
"X  c #06090C",
"o  c #020612",
"O  c #020915",
"+  c #00051B",
"@  c #020B1B",
"#  c #0A0917",
"$  c #03121D",
"%  c #0A111D",
"&  c #051016",
"*  c #010422",
"=  c #010D23",
"-  c #000E2B",
";  c #080F21",
":  c #031123",
">  c #01122B",
",  c #031A2D",
"<  c #091A29",
"1  c #000C33",
"2  c #000C3B",
"3  c #000634",
"4  c #011433",
"5  c #011A34",
"6  c #0A1C34",
"7  c #00153B",
"8  c #011A3C",
"9  c #0A1A3B",
"0  c #101C36",
"q  c #08233B",
"w  c #16263A",
"e  c #000D40",
"r  c #001442",
"t  c #011C43",
"y  c #00164A",
"u  c #011D4B",
"i  c #0B1E47",
"p  c #001D54",
"a  c #001B58",
"s  c #001554",
"d  c #012244",
"f  c #02224C",
"g  c #0B254B",
"h  c #0A2648",
"j  c #152A49",
"k  c #1B3147",
"l  c #022453",
"z  c #022A55",
"x  c #0C2B54",
"c  c #01255A",
"v  c #032B5C",
"b  c #0C2D5B",
"n  c #0A275B",
"m  c #142E57",
"M  c #0B315D",
"N  c #063157",
"B  c #1B3355",
"V  c #12325D",
"C  c #1B335C",
"Z  c #163156",
"A  c #243648",
"S  c #24375B",
"D  c #222E48",
"F  c #022C62",
"G  c #0C2E61",
"H  c #012966",
"J  c #043364",
"K  c #0B3364",
"L  c #03346C",
"P  c #0B356B",
"I  c #033A6D",
"U  c #0B3A69",
"Y  c #123463",
"T  c #1B3463",
"R  c #1C3B64",
"E  c #13346C",
"W  c #143A6C",
"Q  c #1A386C",
"!  c #013570",
"~  c #033972",
"^  c #0B3C75",
"/  c #013D7C",
"(  c #093777",
")  c #123D73",
"_  c #183A75",
"`  c #253A65",
"'  c #233C72",
"]  c #224153",
"[  c #18416A",
"{  c #06467A",
"}  c #134274",
"|  c #1A4176",
" . c #14457D",
".. c #17487A",
"X. c #264568",
"o. c #244274",
"O. c #274979",
"+. c #2C537D",
"@. c #384C6E",
"#. c #003F81",
"$. c #064785",
"%. c #124785",
"&. c #08518D",
"*. c #165389",
"=. c #0D5696",
"-. c #14529B",
";. c #124D91",
":. c #284A86",
">. c #314E88",
",. c #275588",
"<. c #375B88",
"1. c #2A5B9B",
"2. c #285895",
"3. c #355E9C",
"4. c #2A4B92",
"5. c #29619A",
"6. c #356A94",
"7. c #3A6E98",
"8. c #386E93",
"9. c #175AA8",
"0. c #0E5FB7",
"q. c #125EB6",
"w. c #0F59A4",
"e. c #2E5EA1",
"r. c #1964A9",
"t. c #0D65B9",
"y. c #1868B9",
"u. c #286AA9",
"i. c #3565A6",
"p. c #216AB6",
"a. c #2B78B6",
"s. c #3875B5",
"d. c #367AA2",
"f. c #435D86",
"g. c #4B7096",
"h. c #4C76B5",
"j. c #4F7CA1",
"k. c #136AC3",
"l. c #136CCA",
"z. c #1465C2",
"x. c #1A71CD",
"c. c #1676CA",
"v. c #1C7BD3",
"b. c #1677D3",
"n. c #0F64C1",
"m. c #2578C8",
"M. c #267FD5",
"N. c #3A87BB",
"B. c #3582B5",
"V. c #4B8BB7",
"C. c #588BB5",
"Z. c #5287AF",
"A. c #1B82D6",
"S. c #1A86DA",
"D. c #1980CD",
"F. c #2888CD",
"G. c #328BC8",
"H. c #2388D7",
"J. c #2C93DB",
"K. c #3798D9",
"L. c #3790CD",
"P. c #1B85E4",
"I. c #1E8AE4",
"U. c #218BE6",
"Y. c #2592E3",
"T. c #2C96E7",
"R. c #359CE3",
"E. c #3A9EE8",
"W. c #3A9DF0",
"Q. c #39A3E9",
"!. c #448AC2",
"~. c #4A96CA",
"^. c #5797C8",
"/. c #4698D5",
"(. c #599CD6",
"). c #6F98C5",
"_. c #48A3DA",
"`. c #56A4D7",
"'. c #5BA6CD",
"]. c #61A3CC",
"[. c #6CA5CA",
"{. c #68A8D8",
"}. c #6DB1D7",
"|. c #73A7D3",
" X c #489EE7",
".X c #44A3E4",
"XX c #48A9E8",
"oX c #53ADEB",
"OX c #56A9E5",
"+X c #4CB3EC",
"@X c #47B0EA",
"#X c #54B3EC",
"$X c #5BBDEC",
"%X c #58B6E8",
"&X c #4EB8F3",
"*X c #54BCF4",
"=X c #5BBDF2",
"-X c #53B6F3",
";X c #51AEF1",
":X c #67AAE5",
">X c #67B8E8",
",X c #76B7E7",
"<X c #66BCF3",
"1X c #70AEE7",
"2X c #75C2DE",
"3X c #5AC1F4",
"4X c #5BC4FB",
"5X c #7EC6ED",
"6X c #62C2F3",
"7X c #6AC5F6",
"8X c #78C3F4",
"9X c #66C2EB",
"0X c #81ABDD",
"qX c #86BAE7",
"wX c #81BFF0",
"eX c #89C8EA",
"rX c #86D4EE",
"tX c #8AC7F2",
"yX c #9BD8F5",
"uX c #99C6EA",
"iX c #A6DBEF",
"pX c #A4CFF2",
"aX c #AADBFF",
"sX c #A7D5F6",
"dX c #B4DDFE",
"fX c #B9DBFF",
"gX c #AAD3EE",
"hX c #A9E3FA",
"jX c #B4E1FD",
"kX c #BBE3F9",
"lX c #A7E1EF",
"zX c #C2EBFE",
"xX c #CAECFE",
"cX c #C8E4FC",
"vX c #D0E6FD",
"bX c #D5EBFD",
"nX c #DDEDFF",
"mX c #D5F6FF",
"MX c #DCF2FF",
"NX c #CCF0FC",
"BX c #E1EEFF",
"VX c #E0F0FF",
/* pixels */
"  . . .     .     o O o + o + O + @ = + = = = > = O = @ + O . O O o + + o . . O   o o o .                                     X ",
"      . .   . . . . o o o + + + @ = @ = = = = > 9 > = + + = + O @ + = + * * + o + + * = O . o                                   ",
".   . .       . . . o o O O @ @ @ : = = = = - 9 4 i B S C B C ` T C R T R R R C C B V V x h w =                             .   ",
"    . . . .       o o o O @ + @ @ : : = > - > 8 t u t y u f u u c l n K F G l K K b K K N f 6 o X                       .     X ",
". o . . . . X     X o o O + @ @ : - = = - - > 9 7 4 3 1 7 r r 7 r r 7 3 e r e y 7 2 e 2 3 1 - o                       X   X   X ",
". . . . . .     . o o o O + @ @ > > = > > > 5 t t M W  .*.%.*.2.2.,.,.f 2.1.1.2.2.,.1.5.1.,.j O                         X   X   ",
". . . . X .   . . o o O @ @ = @ > > - > 4 4 7 f y ) %.;.-.-.9.9.r.u.2.r u.y.y.y.r.r.w.w.9.1.x + X               .       . X . . ",
". o . . .   X   . . o O @ @ = = > > > > 4 4 7 l a ;.-.w.q.q.k.t.y.y.u.s y.k.z.t.t.t.y.q.q.w.l * . . .               X       . X ",
". o . . . .     . . O O O : $ : 5 8 4 4 9 7 t c H -.r.t.n.l.l.b.x.m.i.s y.k.x.l.k.t.n.z.z.9.s * O     X X           .   . . . . ",
". o o o . . . o . o O @ + > = > 4 8 4 4 d 7 f c H -.y.t.l.b.b.b.m.m.u.s m.x.x.x.l.c.l.l.z.p.i * . . .       X X   X . . . . X o ",
"o o . . o . . . . o O @ @ > - > 8 t 7 8 h r f v H r.t.c.b.b.A.A.v.m.a.a m.v.M.b.b.b.v.x.l.r.p + o .   . X   X   .   X . . . o o ",
". o o o . .   o . O + = = 4 > 4 t t 8 t h 8 l F L p.c.b.S.S.S.S.A.M.a.s m.H.D.A.b.A.v.v.x.p.d o . . . X X     X   X     . . . o ",
"o o o o . . o o o O + = = 4 4 7 t f d t g u c H ~ m.M.v.I.P.P.P.S.F.s.l F.F.F.H.S.S.A.v.c.a.d o .   .   . .     . . .   . . o o ",
". o o o o . . o o O @ = = 5 4 8 t f f f x u H L #.M.U.U.I.I.P.I.T.J.L.l L.J.F.J.Y.Y.H.H.A.B.d o o . . .   .   X     . . . . o o ",
". O o o o . . o o + + : > 9 7 t f l g l b f c L #.H.U.U.Y.S.J.T.W.R./.c K.Q.K.K.W.T.Y.Y.S.B.8 + o . . . .     X   .   . . . . o ",
"o o o o o o o o O + = - > 8 8 t f z l g M c H ( #.L.J.J.J.S.T.Q.Q.Q.~.H /.Q.Q..XW.W.W.Q.J.G.t + o o . . X .       . . . . o o o ",
"o o o o o o . o o O = - - t t f c z z z K v F / $.K.J.H.T.Q.Q.Q.Q.E.`.J .XXXXX X XoXXXR.K.L.t * o . . . . .     . . o . o . o o ",
"o o o o o o o o O @ : > 4 t u l z z v v M J F ~ / /.J. XE.E..XQ..X<X^.I OXXX;X;XOX:X`.`._.~.8 * o o o o . . . .   . . . . o . o ",
"O O o + o o o o O + - > 4 t u f v v z x M M v { I ~./.~.`.`.~.(._.^.[.} ].`.(.:X].{.{.].].[.= # o o o . . o . . . . o o o . # . ",
"O + O O o o O O + # > - 4 t u l c z l l l M v [ I u c l f f f d f f t 4 t p p y u t t d - , + . . o . o . . o . . o . . o . . # ",
"@ O O @ + o + O O = , > 7 t f c F v a v l K F } { p l l z f f f l z 8 d f u c s f 4 8 t t 4 + # o o o . . . o . . . . . . o o o ",
"@ O O @ O + O @ + = 4 4 t l c J L ( L ) F ) L %.$.(.(./.`.`.`.{.{.{.[.d.}.}.|.,X}.eXqXuXuXS ; # o . . o . o . . o o . . o . . o ",
"@ O @ @ + O + = + > 5 8 t c J P L ( (  .H ^ I $.&.OX.X#X@X_.*X%X9X}.'.B.'.,X,X5XrX2XeXuXpXX.> o # o o . o . o . . . . o . o o o ",
"@ O @ @ @ O @ @ + = 4 4 t l F P ~ ^ )  .F ^ ~ &.&.oX+X@X&X&X&X3X9XB.[.B.^.8XtXeXrXrXyXyXsX] > @ o o . o . o . o . o o . o o o o ",
"$ @ @ @ @ + @ @ = > 4 8 u c G U P } G ..c ) ~ &.&.oXXX+X3X3X3X3X{ 5X..V.].eXtXyXyXiXlXlXkX] : @ o o o . o . . . . o . o o o o o ",
"$ @ @ & @ O @ = + > 4 7 t c F U P W v | l } I *.&.oX-X@X+X&X4X3X<XI C.t 8.eXz yXiXlXlXcXcX] $ @ + o o o . o o . . . o . . o o o ",
"@ & $ @ + @ + = + - 5 7 t l F P L L v P l ..L *.=.`.#X=X+X$X3X3X{ I u r f N pXiXlXkXcXvXNX] & O o o o o o o o . o o o o o o o o ",
"$ @ $ @ + O @ ; + = 6 4 t z v U U F F P a ..I *.&._.XX+X3X%X3X>X>XeXp u d +.pXfXgXkXvXbXbXA & # + o o o o . o . o . . o o o o o ",
"@ @ $ @ O O @ # ; = 4 4 9 l v P ^ F F L a  .~ ;.&.oX-X#X@X3X3X6X7X,X{.l ,.jXpXjXkXxXbXnXMXA : @ O o o o o o . o . o . o o o O O ",
"O & & @ O O @ @ + = > 4 7 u c K L H H E p  .~ *.$.%XoX&X*X+X*X4X7X<X^.I ..aXsXkXkXxXbXnXVXD > = O O o O . # o o o o o o o O O o ",
"O $ @ O O O O @ + * > 4 7 f c K K v v _ y | P %.;.=.;X#X@X*X4X3X7X<X~.5.6.aXsXjXzXNXnXBXVXw = = + O O o o . o o o o o o o O O O ",
"O & @ O o + O + @ ; > 1 7 u z K v F n _ y | L %.$.<Xy.&X&X&X=X3X6X9XV.*.V.yXjXkXzXNXMXVXBXw : : @ o O O o o o . o o o O o O O + ",
"@ + O O O o o o + ; - 4 8 f l b v v K _ u [ J  .{ :XL.-X&X&X4X3X7X5XN 8.C.sXjXjXxXNXmXmXMX< ; : @ O O O o o o o O X o X # O O O ",
"O O O O o O o + O = > > 7 t g n v F K Q t W J %.$.=.:X%X-X6X#X9X>Xd.z [ Z.iXjXkXcXxXmXmXMXD + @ # O O O X # O o o o O o o O @ O ",
"O + O + o o o o O = > - 4 t u f p l v K r Y H _ %.(.{.1X1X:X,X}.,XU z [ ).pXdXcXvXvXbXMXVX0 ; # O O O O o o o o o o o o O O O # ",
"O O o O o o o o + : > - 4 7 t t t f l K r W L ^ ( a H c a v d z f r 7 7 5 z x f i g g m g 9 0 + @ # O o o X O o # X o O o O O O ",
"O O + o o . o o + : > - > 7 t u f f v Y t K F ~ / :X>X>X%X:X9X}.,XJ t [ sXjXkX|.cXC fX).cXi = @ + # O o o O # o o o o O o O o O ",
"o o o o o o o o O : : - 1 4 8 d d z M W 7 M v ~ { (.`.>X%X#X3X9XV.F J 6.^.hXaXgX<.<.0X:.qXf + & O O O o o o o o # O o o O O o O ",
"o O o o o . . o O ; ; > - 4 5 d d z v W 7 n c K ~ J N.N..X6X*X<X$.2.v i.!.aX6.<.X.g...).h.h : & O O O O O # o X X o O o o O O O ",
". . o o . o . o o ; = = = - 4 8 d z c Y 7 b f v ) y J { $.K.<X<X{ ,.H 5.!.,X^.,.7 8 t Z.Z.5 $ O O O o o o o o o o o o # o o O + ",
"o . . o . . o o o @ + = = - 4 8 d f c b 7 j i i T e p v L $.:X^.O.o.H 2.m.(.h.' n 2 7 g.j.4 # o O O O o X # X o # . o o # o o O ",
"o . . . . . . o # & @ = = = > 5 8 f l x 7 g y i B 1 7 f p E 6.O.7 <.a 2.i.s.E G i i d <.j.4 ; # # o o o o o o o o o o o o o o o ",
". . o . . . . o o @ @ + @ = > , 5 7 t g 1 q 7 r h 4 > 5 8 x q 5 5 9 t >.i.i.h.' ` C x R f.1 * o o X o o o X X o # X o X o X O O ",
". . . X . . o . o @ O + + @ : > > > 9 t > h 4 5 5 , : , 6 6 > > 5 S r >.3.e.i.:.Q C Z Z @.1 * + o o o o . o o o . X o o o O o o ",
"  X . . . . . o o O o O @ + @ < = - 4 4 - 5 4 5 > > $ : 6 ; = = = X.7 <.2.i.i.3.Q T C Z B * + o o . o . . o . . X . o . X o o X ",
". .     . . . . . O o O O O @ @ = = > - = 6 > , : = $ < 6 i > - 1 @.7 ' 2.1.1.i.:.T B Z j + . o X o . . . . X . . . X . o X o o ",
"      . . . . o o # o O + O @ : ; = - - $ , : > : $ > 6 i g Q 7 t o.y :.2.2.1.i.:.m m S D ;   X X o . . .   X X   . . X o . X o ",
"X   .   . . . . . # o O O O @ $ ; = : = @ < $ : $ > , 5 f u <.r l T r O.:.2.1.3.>.b B j w o       o . . . .     .     . . . .   ",
"            . . o . o o o O @ @ : : @ @ $ : $ $ = > > q t z +.u d j 7 o.:.4.1.4.O.x j k w o   .     .   .   . .   X   X   .   . ",
"        .   . . . o o o o o o @ @ @ O @ @ % O $ + , = 4 g +.+.u 8 h 1 C ' :.4.>.o.Z q w w @ . . X X X   . .         X   X   X   ",
"      .     . . . o . . o o o X O O O o O % O $ o = - - 4 h r - + : + 5 2 e r 2 - = O : @ .   .   X                   .   X   X ",
"        .     . . . . o . o o O o o o o O & O @ @ + - w @.X.8 4 : 6 : w B j h h d q q w 0 o .         .   .                     ",
"                . o o . . o o o o o . # o % O O $ $ : : 6 > > > @ $ o < < , q 5 q , , q D o .                             X     ",
"  .         .   . . . . . . o o o o o # o % O O o @ + : @ = : O + $   & $ < , q 5 q h j S + .                 .             .   ",
"                . X . . . . X . o X o o o # o O % O + % o O O @ @ @ X $ : > 4 7 8 g C ` ` + O           .         .             ",
"              . . . . . . . . . o X o o . $ O + o o $ o O O @ # ; @ o & $ > 4 t G Q ` o.` * .   .                   X           ",
"        .       .   .   . . . . . . o o o + O O O o O O O X O O # = o O : 6 i n E E _ E T * X                                   ",
"                  .       . . . o . o . o @ o O O O o o O o o # + ; X O : 4 i n E E _ E ` *                                     ",
"      .                       . o . . o o O O O o o o o X o O . + @   @ : 4 u G K ( ^ E C +                                     ",
"              . X       .   .   .   o o . @ o o o o X O o O . O # O   $ $ 4 r b K P E Y B +                                     ",
"                            . . X   X . . # . o o o o O o # O o O O   & @ : t M U K U Y B o                                     ",
"                              .         . # . X o o o X o O O O O O   & $ > t V M K Y V B o                                     ",
"                                .   .     X X   X . o o o o o O O O   @ @ > t Z K M K V C * . .                                 ",
"                                        X X   X X . . X o o o O o @ . @ $ > t x z G Y V C * o .                                 "
};
