/* XPM */
static char *_4772_ff3ba25c5779de5fbf43edfaa30d59dd6b6a3d6294d597241c0274faeda1be1b[] = {
/* columns rows colors chars-per-pixel */
"64 64 248 2 ",
"   c #1B153D",
".  c #1B1B3C",
"X  c #181738",
"o  c #1C0E3B",
"O  c #26162A",
"+  c #251A34",
"@  c #24153C",
"#  c #241B3C",
"$  c #2A1C3C",
"%  c #281834",
"&  c #311D2F",
"*  c #19213D",
"=  c #0E2036",
"-  c #2C2439",
";  c #352439",
":  c #362F34",
">  c #42323B",
",  c #1B1544",
"<  c #151B43",
"1  c #1C1B44",
"2  c #15144A",
"3  c #1B154C",
"4  c #1D1A4C",
"5  c #151546",
"6  c #1D1654",
"7  c #1D1953",
"8  c #1E155B",
"9  c #1E195A",
"0  c #171553",
"q  c #1A0E46",
"w  c #231543",
"e  c #241A44",
"r  c #2A1C44",
"t  c #22154C",
"y  c #231B4C",
"u  c #2A1C4B",
"i  c #291448",
"p  c #321E49",
"a  c #221654",
"s  c #231B53",
"d  c #20155B",
"f  c #221B5B",
"g  c #2A1C56",
"h  c #2A1755",
"j  c #1C2344",
"k  c #192548",
"l  c #162849",
"z  c #232444",
"x  c #2D2343",
"c  c #24224C",
"v  c #2C224C",
"b  c #242B4B",
"n  c #2A2B4C",
"m  c #272A45",
"M  c #33254C",
"N  c #362A47",
"B  c #27354D",
"V  c #3A3549",
"C  c #252252",
"Z  c #2C2453",
"A  c #2C2957",
"S  c #322554",
"D  c #332B55",
"F  c #3B2C54",
"G  c #32255A",
"H  c #382C5A",
"J  c #2A3756",
"K  c #373758",
"L  c #1F1461",
"P  c #1E1860",
"I  c #201461",
"U  c #261C66",
"Y  c #2E2263",
"T  c #362B65",
"R  c #3A3563",
"E  c #33316E",
"W  c #453547",
"Q  c #432E56",
"!  c #433354",
"~  c #43345B",
"^  c #4C3C5C",
"/  c #463C56",
"(  c #513C5C",
")  c #483444",
"_  c #4B3D63",
"`  c #463666",
"'  c #4A3869",
"]  c #39475B",
"[  c #2A4352",
"{  c #384765",
"}  c #3C4E6A",
"|  c #53434B",
" . c #494557",
".. c #57475A",
"X. c #575359",
"o. c #4B424D",
"O. c #665259",
"+. c #6E625C",
"@. c #464666",
"#. c #54446B",
"$. c #574867",
"%. c #47576A",
"&. c #595868",
"*. c #494775",
"=. c #594A73",
"-. c #485975",
";. c #5A5879",
":. c #624E6A",
">. c #685867",
",. c #735D6B",
"<. c #614E76",
"1. c #685776",
"2. c #745E75",
"3. c #566679",
"4. c #4C6378",
"5. c #696267",
"6. c #76686B",
"7. c #6A677B",
"8. c #776678",
"9. c #7C7579",
"0. c #757072",
"q. c #83736B",
"w. c #897779",
"e. c #877175",
"r. c #96877B",
"t. c #8B8376",
"y. c #6D5C87",
"u. c #5A6A86",
"i. c #5E748C",
"p. c #4F6280",
"a. c #676886",
"s. c #776988",
"d. c #69778C",
"f. c #7A7B8A",
"g. c #687894",
"h. c #757894",
"j. c #766A94",
"k. c #6D709D",
"l. c #846C87",
"z. c #867985",
"x. c #917C8D",
"c. c #877A95",
"v. c #947D98",
"b. c #897DAC",
"n. c #6C8495",
"m. c #76899A",
"M. c #7A818F",
"N. c #7A89A4",
"B. c #7D90A2",
"V. c #8A8487",
"C. c #928383",
"Z. c #988989",
"A. c #9D928A",
"S. c #868A9A",
"D. c #9B8B93",
"F. c #968897",
"G. c #9D9394",
"H. c #9B939B",
"J. c #A18E8A",
"K. c #A6978B",
"L. c #A28B93",
"P. c #A79898",
"I. c #B09A98",
"U. c #ACA39B",
"Y. c #ACA497",
"T. c #B4A49C",
"R. c #B8A99A",
"E. c #B3A793",
"W. c #868AA3",
"Q. c #988AA6",
"!. c #8796A8",
"~. c #9B97A8",
"^. c #889BB3",
"/. c #999BB6",
"(. c #978DB8",
"). c #A699A8",
"_. c #A99BB7",
"`. c #B39BAF",
"'. c #99A6B8",
"]. c #93A7B4",
"[. c #ABA3A4",
"{. c #A8A4A9",
"}. c #B2A4A3",
"|. c #B2A6AB",
" X c #B3ABAB",
".X c #B8ABA6",
"XX c #BDB3AC",
"oX c #BAB2A7",
"OX c #ACA4B4",
"+X c #A8A9B9",
"@X c #B5ACB3",
"#X c #BAADB4",
"$X c #B6AAB9",
"%X c #BDB4B4",
"&X c #BCB4BB",
"*X c #B8B5B8",
"=X c #A7B2BF",
"-X c #C2B7AC",
";X c #C2BAB4",
":X c #C4BBBC",
">X c #C4B9B8",
",X c #C8C1BB",
"<X c #D1C8B9",
"1X c #9E99C6",
"2X c #A29BC8",
"3X c #9CA9C2",
"4X c #9EB2C3",
"5X c #A9A6C6",
"6X c #B5ABC7",
"7X c #ACB4C4",
"8X c #A9B7C8",
"9X c #B4B3C3",
"0X c #BCB5C4",
"qX c #BDBAC5",
"wX c #B9B8CB",
"eX c #B7ADD9",
"rX c #BAB5D7",
"tX c #ABA7D4",
"yX c #BEB4E2",
"uX c #BBAEE3",
"iX c #C2B6C3",
"pX c #C4BBC4",
"aX c #C4BCCC",
"sX c #C8BCC9",
"dX c #C4BCD3",
"fX c #C4BCDB",
"gX c #C5BBD7",
"hX c #C5BCE5",
"jX c #BDC2D2",
"kX c #BEC0CE",
"lX c #CBC3C5",
"zX c #C5C1CD",
"xX c #CBC3CC",
"cX c #C8C3C8",
"vX c #D0C6CD",
"bX c #C5C3D3",
"nX c #CBC4D3",
"mX c #CEC8D3",
"MX c #CCC4DB",
"NX c #C8C7D9",
"BX c #D1C6D4",
"VX c #D1C9D4",
"CX c #D2CADA",
"ZX c #D1C6DA",
"AX c #CBC2E3",
"SX c #CBC3E9",
"DX c #D2C8E4",
"FX c #D3C7F1",
/* pixels */
"I I d 8 8 9 6 7 9 4 4 4 c C Z M Q Q Q ( ) ,.e.:.<.( 2.<.> O.e.e.L.e.6.l.F.6.G.0.5.A.5.Q.h.=.! W.n h.Z Z y 5 A 2 6 6 6 6 6 8 I I ",
"I I L d 8 8 9 7 2 3 y s s C A H p ' p ' :.,.e.l.v.l.v.( O.I.O.q.q.x.| F.z.@X|.U. X|.~.f.$.&.n  .V ;.D c k C 4 y 4 3 a a a 8 L L ",
"I I 8 d 8 9 0 7 7 3 2 7 s s s Z ' T h Q 1.O.e.e.e.v.v.v.e.e.K.I.w.L.>.8.z.5.w.V.G.X.P.=X/ c.&.7./ K d.@.*.D C 1     1 6 L L I I ",
"I 8 8 d 9 d 6 9 7 7 s s s Z T ` Q ' Q ' ,.( e.e.v.`.| I.I.I.w.w.-X,.e.D.).).z.%X&X@Xz.&Xf.&.7.z.&.h.;.V @.R c . . 1 , 4 8 I I I ",
"8 d 0 8 8 9 9 7 9 a s s t g G ` ' <.y.:.e.w.q.I.x.v.q.w.w.I.R.r.P.w.P.G.C.#Xz.*X X0.{.X.{.Z.5.+X&.f.V ] m K < A c 4 4 3 6 6 d d ",
"8 8 8 8 8 9 0 7 a 6 t h G T ' ' h <.<.<.I.e.q.q.w.I.w.I.q.r.R.q.Z.P.|.6.#XD.$XV.OXV.{.[.V.[.7. XV.9.~.{.'.D D 1 4 4 3 4 a 6 d a ",
"8 8 8 8 0 9 6 9 4 s g Y G G ~ ' ' Q l.2.x.e.e.+.R.R.E.K.R.E.R.R.|.U..X XP.:XO.F.zX9.H.A.*X*X*X).{. XM.S./.@. .n c k 4 , 3 t d d ",
"6 8 0 8 9 9 6 a a g G ~ ~ Q H Q Q p 2.O.e.R.R.R.I.w.q.K.R.R.E.E.C.;X.X-X X#XOXiXV.9.{. XG.,X&XS.*XkXM.!.7./.B @.D n c 1 4 6 d 8 ",
"P 9 9 0 9 7 7 a C R H F $._ :.:.l.O.,.e.I.I.J.I.R.E.O.w.J.I.J.-XA.-XG.XXY.;Xz.$XiXD.G.[.%X*XH.+X~.{.qXS.a.%.] @.- * m 4 6 6 8 8 ",
"8 8 9 9 9 7 9 y u S F #.:.8.) 2.| q.O.e.I.I.R.`.I.J.E.e..XC.T.T.A.t.oXr.%X%XpXaX6XF.cX X).{.*X0X9XqX9Xf.7.h.K *.K J j y 5 3 a 6 ",
"8 9 9 9 0 9 7 s G H @.^ :.:.2.e.I.I.e.x.J.I.L.e.J.-XL.I.q.P.I.K.Y.oX-XXXL.|.xXsX0X@XqX@XpXaXOXOX~./.~.S.W.;.g.a.d.k   z 4 2 s a ",
"9 8 8 8 0 7 a s y r p ..( x.).e.e.e.w.R.e.L.e.I.x.-X).>X|..XJ.>XXXoX}. X>XV.iX).@XpXxXcXH.xX$.OXwXwXrX5Xa.2Xj.@.a.K B 4 y 4 q 0 ",
"9 9 0 9 8 9 4 t y p p ( :.e.l.L.r.r.R.-XL.`.F.Q.`.).Q.).).iX>X%X;X;X{.D.&XiX>XpXOXxXsXmXOXaXaXwXj.u , A 2XrX!.'.'.g.z D , 5 U 8 ",
"8 0 0 9 s 7 6 t g   Q l.>.e.x.& r.K.R.r.|.; $ ~ @ o % $ % & P.#X%X XP.O OXpXsX:XxXpXxXnXaXZX).6Xw 2 s C 4 h.m.a.(.].;.K 1 a d L ",
"6 7 9 9 d 7 s G T w Q ' <.2.`.& q.I.K.K.`.r @ t w u i % + - :X>XG.>X).O ~.sXsXvXvXlXxXsX$XnX0X7.y g E 3 4 k j rX/.3.%.c 1 6 6 8 ",
"9 9 9 7 6 a G R ` u p ( v.v.e.& K.R.T.}.l.@ i g b._.Q.6X0XsX}.>XG.@XQ.O Q.iXsXlXlXvX:XCXbXnXCX_.y tXuXeXeX, k C m.@.n k 4 4 6 a ",
"8 9 7 7 s y r F #., M #.N x.2.% .XI.e.T.L.$ @ l.H.*X*X;X-X;XlX>X:X}.s.% `.#X:XsXXXlXsXsXnXaX5Xc.w eXrX5XfXS.2 7 W.W.@.-.a., 6 8 ",
"P 9 7 7 q ~ N N #.u y ' 1.Q.j.O L.T.R.:X_.@ p <.[.%XP.;X-X-X>XsX>X|.6X$ ).sXsXxXP.lXlXmXdXdXgXn # rXNXnXaXfX' 3 W.7X@.b < 1 a d ",
"P U 2 < D F ! ! _ , i ` ~ v.v.% I.R.T..X`.% r :. XR.;X-XR.<X,X-X-XpXOXo `.0XsXZXxX*XpXCXbXdXSX@.. j.6XwXF.+XyX1 W.!./.* z 1 3 a ",
"0 P 9 7 Z F ( F.=.a 3 ` <._.l.r }.Y.C.|.Q.$ $ s. XY.XX;XXX;X-X,XU.#XgX$ 6X$XsXCXsXnXBXBXMXMXNX$.1 rXfXfX6XrXK 1 +X'.%.m c q q t ",
"f 2 4 s y ~ ~ =.' 3 a h i i h @ K.E.T.)._.p i _.c.xX6XiXxX%XlX X>XiX6Xr OX).nXF.BX0XBXbXMXbX2Xj.y 1XS eXH v , /.7./.*.N.< C 9 6 ",
"4 C 4 , u S <.y.` Z q h i i h w A.E.-XQ.b.r a j.x o u @ N ).sXpX*X&XwX# s.6XgXsX@XmXaXCXCXNXdX;., y y @ r w 2Xa.'.3X'.h.0 4 3 s ",
"6 0 4 s M #.( y.#.3 i y.1.Q.c.% A.K.I.>X1.h a t i @ e y @ $ s.pX XiX_.  1.nX0XnX&XVXmXNXbXNXfX@.y 1XtXfXhXeX6X+Xa.'.W.b 7 7 a 3 ",
"d 0 s Z e M ( ( =.w t ` <.v.l.% J.-X`.>Xc.p h h (.6XgXy.$ % ).`.*X>X6X@ 7.dXgXaXxXnXaXMXCXdXfX=., hXfXgXMXwXjXwX8X'.%.-.J 3 3 a ",
"6 f 7 y v M ! ^ ' s a T _ s.y.% X.J.-X$XV...@ _._.iXsXsXxX|.pXpXiXcX/.@ x fXgXgX~.MX6XAXrXNXMX<.e hXbXzXbXNXkX7X'.=X].] b 7 f 3 ",
"a d 5 y H #.:.:.=.w p ` <.8._.@ O.8.-Xv.x.>.& F.z.&XiX|.:X%XlX:X[.qX6Xe w y w u s.2XuXSXDXNXAX2X, eXNXcXmXbX*X7X!.3X&.@.b C 0 6 ",
"9 9 s 4 g p ^ ..7.X $ 7.x.8.8.O ..,.`.-XI.| O F.Z.#X-X#X*X%X*X:X,XcXh.o t h 6 a t t h w rXMXfXeXt hXmX&XmXkXbXjX/.eXg.[ < 2 f I ",
"7 2 7 s H F ( $.2.@ $ l.D.6.D.O & I.x.+.q.L.O Q.F.%X>X X@X{.@XZ. X@XdXw a a 6 a s 3 6 t x dXAX;.r tXxXmXxXwXkX!.W.g.!.%.K 7 3 a ",
"8 9 2 k e ^ ..! #.w i <.2.x.l.& | e.x.e.>.e.$ $.$.F.7.)._._.H.w. XxXgXo a a a t y y a h o gXhXp e rXVXlXcXcX7X9X=Xd.M.J J < s y ",
"0 9 0 c   F ( $.=.w p _ l.,.x.O ) x.x.) >.>.@ @ @ e @ w @ # N {.cX&XdXr hXFXFXhXhX6XZ G 6XgXFXw w MXzXxXzX*XqX!.!.8X3.3.1 C 1   ",
"9 0 < < u $ ! $.=.M @ Q 8.2.e.% ( y.Q.Q W :.w i @ @ r o y , - OXcXxXNX$ SXgXAXMXBXDXhXSXZXDXFX' S SXNXnXbX+XbX7XM.!.3.g.J 4   # ",
"0 7 7 7 y u ! :.1.r o $.l.:.v.O & 2.5XQ ^ s.=.$.c.)._.(._.N f.*XpX>XZX$ gXDXnXnXxXBXZXDXMXDXhXG eXfXMXbXbXjXwX'.8Xn.} *.k C ,   ",
"7 9 0 s t S M ~ $.( w ! 1.s.$X; $.).8.) $.<.w.> w.).$XOX Xq.oXU.XX|.~.% NXbXCXZXBXvXCXgXCXZXhXH gXgXZXnXmX7X7X8X!.].u.} < k 3 y ",
"0 9 d 6 4 y n ^  .=._ ~ s.! 1.c.) L.}.O.( 1.Z.w.}.).L. XU.t.A.P..X:XqX+ 0XmXaXzXvXvXBXBXBXDXhXS gXgXnXnXwX7X3.W.'.g.g.{ < 4 0 s ",
"8 0 d 6 a w v _ <.~ p M #.F l.V ; P.P.l.Q s.L.-XoX-XJ.XX,XA.;X%X|.$X~.+ 9XF.bXCXvXvXCXBXsXDXhXx 9XnXaXaX*X8XB.^.B ] -.{ k 4 q a ",
"9 0 8 0 s y r K _ e H H u ~ M #.>.( 8.:.% x.Z.J..X-Xw.XX,XoX-X XH.{.rX+ wX0XqXpXvXBXBXgXgXCXhXp 9X9XbXwXM.S.!.].] -.u.l C 4 d 3 ",
"8 9 8 8 a s e v v v Z u u S ~ #.#.( 1.1.N F.Z.E.r.P.U.>X#X-X X#X& wX6X+ mXkX&XpXBXBXBXgXnXNXAX# 9X0XkXM.M.'.8Xa.d.{ -.A < 4 3 s ",
"8 f 9 0 3 s y v S v , G u H ;.<.~ _ ! ..; 6.J.t.T.T.T.U.|. X#X#X`.$XeX+ bXqXCXmXBXBXZXaXBXNXNX# 7.9XqX=X=XjX].!.4.m.g.J < 4 0 3 ",
"9 9 I 9 9 s C A v , G s , s ;.=.#.1._ F $ 8.w.r.K.-XoX-X0. XpX5.wX- 6XF wXmXzXzXBXsXMXsXnXnXfX- W.8X=X3.8X] jX].^.n.k -.4 2 3 a ",
"9 0 9 0 d 4 y Z Z S g q s G Z H ^ M _ i $.6.G.6.oXoXr.R.:XlX@X&XaXN 5XX dXxXN bXBXnXnXnXnXMXrX1 7XM.=XS.8X].3.u.B ^.u.k 4 4 6 a ",
"9 7 9 9 7 7 4 e S A Z a y y D _ ~ #.=.r ^ | 6.Z.t.C.6.-X@X%X%XoXiX>._.x DX9XV nXsXBXxXCXbXNXhXb S.&.] n.W.3.3.B.u.u.p.4 < 3 9 6 ",
"7 7 0 7 6 4 4 c C C a 7 a y D @.=._ #.@ ^ 5.x.8.: Z.6.>X*X> XXoX&Xf.Q.v 6Xs.5XaXVXxXsXZXZXMXyX1 M.].].%.4X'.n.-.%.] { < 7 4 3 6 ",
"9 6 9 7 7 4 k y C y 4 7 s y D #.V $.y.e ~ >.N 8.6.w.A. X-X:X;X,XH.$XrXv fX# Q.ZXnXvXsXxXqXMXtXc 3.=XB.M.].-.n.'.-.] J < 7 3 6 a ",
"7 6 6 6 7 7 4 y k y a C s C Z K - &.Z o ^ ^ ,.$.z.w.K.-X).lX;X;X@X$X5Xv AXx dXBXsXH.mXmX9XbXtX1 n.%.S.n.3./.3Xa.;.{ R l 4 3 a d ",
"6 s 9 8 7 7 4 4 4 7 7 7 a s c D F @.K r N ..z.,.[.q.|.5. X*X,X%XOX6X(.v fXx DXgXaXxXaXsXqX6Xh.C !.].B.4.'.3Xd.d.J b b < < 3 9 6 ",
"a d 8 8 0 7 3 4 4 C 7 7 4 C Z D V ~ H @ ~.8.1.,.q.q. Xo.cX,X<XH./ MXs.H AXx ZXgXBXxXNXCXzX9X/.b ] kXB.%.d.7XN.J B . < < 7 0 a 6 ",
"8 8 d 8 8 6 4 4 s s 7 7 s s Z S v @.F @ s.5.6.D.A.oX+.& :X,X:XpXN eXD (.fXN ZXZXdXCXiXnXmXkXM.* &.B.B.] B.@.4.B ] k k < 3 3 d d ",
"8 d 8 6 8 0 7 4 4 7 7 9 s a s M K ~ Z . #.:.o.| Y.R.oXG.:X:XlXsXN SXS 1XrX_.NXdXCXBXgXsXwX~.7.%.].n.!.B.] -.B K J < 1 4 2 3 d 6 ",
"d d 8 a 9 6 7 3 4 7 7 k s 4 A Z V @.R e #.V >.6.U.A.R.oX,X,XlXBXx hXZ 5XrX6XnXxXmXmXmXcX].4X4.[ ].n.B.4.} ] ] K k 1 , 3 4 6 a a ",
"6 d 8 8 6 6 7 4 7 4 7 4 y 4 C c n / A , a.V 5.O.9.oXR.,X;XpXpXpXN hXS 2Xk.rXmXvXmXmXcXkX] ].} n.[ 4.3.4.l %.* j b j 4 y 6 6 d d ",
"d d a d 9 7 7 7 7 4 4 4 3 C C c K @.Z y y./ 1.>.A.t.oX<X:X:XpXmXn fXZ tXD hXmXxXbX0XmX!.] 4XB.].n.i.i.[ ] b b . c , 1 y 3 3 a 8 ",
"d d d 8 0 9 7 4 7 4 4 C 4 C y c D K y , H / N X.Z.Y.,XY.H.&X,XcXN hXu rXS fXmXxXCXCXkXkX=X].4Xn.n.i.i.n.J = . b   . 5 3 a a d d ",
"d d d d 8 6 0 4 7 4 4 s 4 A C c c c A t D F +  .A.K.E.;X].;X,XxXx hXv eXF fXCXvXNXbXNX9XB.B.B.B.4.} p.{ J l B X . . , t 3 a I d ",
"L d 8 d d 6 9 7 4 4 4 k y c C 4 1 1 g 1 Z D - o.5.t.oX;X*XkXcX@X- hXC eXx DXVXxXnXwXNXwXB.B.B.].= i.n.p.J l * . .   , 3 a 8 d 8 ",
"L I 8 I 8 6 9 3 3 7 4 4 c 4 A y 4 c s y v K V X.X.Y.oXoXcXpX,XqXr hXy hX=.CXxXxXZX+XjX8X[ B.n.4.l [ } E l = X *     , 3 3 8 d I ",
"8 I d 8 8 9 7 7 2 C 5 4 s 4 A c 4 5 G w D K W  .9.t.Y.5.,XzX&X*Xr hXi eX5XzXmXxXbXjXwX'.B.p.B.{ l [ } p.J l <   *   3 t 3 a d 8 ",
"I I P P 8 8 6 6 7 7 4 4 4 4 c c c c s 4 H  .[ O.V.G.t.Y.*X&X:X=Xz tXa uXeXgXBX5.NXjX'.^.^.B [ l 2 J -.p.K j . *   . , 3 3 8 d L ",
"I I 8 8 8 8 9 7 7 7 2 4 4 4 4 4 1 A T 3 c V : +.&.~.0.U. X@XcXH.r tXU (.aXaXnX{.jXjX=X!.4.m.[ -.l E } R J b - .     , , 6 a d L ",
"I I 8 8 8 9 9 7 7 7 4 4 3 1 4 1 c y f Z K / : o.X.A.{.*X*X X*X{.m tXU ' dXzXbXmXNX8X].p.3XN.{ l < J b *.m 1 m . .   , 3 6 8 8 I ",
"I I 8 8 8 8 0 7 7 4 7 4 4 3 4 4   n s 3 x @. .] X.[ U.M.V.{.cX{.S tXU G gXmXnXbXjXNX4X} i.-.B.[ l 2 C } . . X e .   , 2 3 d L L ",
"L I 8 8 8 8 9 4 7 7 7 4 4 3 6 3 1 c s 4 x ] X.5.X.V.V.9.- 9XkX/.s b.T Y rXmXnXdXjX4X8Xi.p.i.n.B l k k 1 z X . X   , q 3 8 8 8 L ",
"d I L d 9 8 0 9 0 7 7 4 4 4 4 y , n R 5 V ] &. .t.].G.=X- +XcX+Xa E E U dXxXaXbXjXjX4Xn.N.u.4.B l l b . . # X X   , 3 t 8 a 8 L ",
"I d d 8 8 8 0 9 7 7 4 6 6 3 6 4 4 4 C 5 z X [ o.0.*XqX8XV wX+XQ.4 7 U U MXmXnXNXjX8X4X-.-.N.} = b n j D X X .   w , t 3 8 8 L L ",
"I I 8 d 8 6 9 0 7 4 6 3 4 0 4 4 4 c 4 1 - + - [ X.9.=X*X# bXOXW.1 9 U Y AXxXNXNXjX8X3X} -.} B = * J * * # X X . w , 3 6 8 8 8 L "
};
