/* XPM */
static char *_6468_192b2c1b76067a9227a742d795a1ab207b545315a04d8fb60dbd513d63440e7a[] = {
/* columns rows colors chars-per-pixel */
"64 64 248 2 ",
"   c #030304",
".  c #05060A",
"X  c #09060B",
"o  c #060A0D",
"O  c #090A0D",
"+  c #090907",
"@  c #060B12",
"#  c #0A0D14",
"$  c #040C1C",
"%  c #0B0E1A",
"&  c #010716",
"*  c #0C1116",
"=  c #0D121C",
"-  c #06121A",
";  c #11131D",
":  c #131117",
">  c #100E1A",
",  c #020C23",
"<  c #0A0E23",
"1  c #010D2C",
"2  c #080C28",
"3  c #051224",
"4  c #0D1324",
"5  c #03132C",
"6  c #0D152B",
"7  c #0C192C",
"8  c #091928",
"9  c #111424",
"0  c #11152B",
"q  c #11192C",
"w  c #101824",
"e  c #020E33",
"r  c #010E3C",
"t  c #000733",
"y  c #031334",
"u  c #0C1632",
"i  c #051935",
"p  c #0C1A34",
"a  c #02133C",
"s  c #051C3C",
"d  c #0B1B3B",
"f  c #0B153B",
"g  c #111632",
"h  c #121A34",
"j  c #121D39",
"k  c #09203D",
"l  c #15243C",
"z  c #000E44",
"x  c #011443",
"c  c #041C44",
"v  c #0A1C42",
"b  c #01144B",
"n  c #021C4B",
"m  c #091D4A",
"M  c #081743",
"N  c #001553",
"B  c #011C54",
"V  c #00155B",
"C  c #011C5B",
"Z  c #0A1C5A",
"A  c #121E48",
"S  c #032145",
"D  c #0B2244",
"F  c #03224B",
"G  c #0A234B",
"H  c #082B4D",
"J  c #132342",
"K  c #16284A",
"L  c #022353",
"P  c #042A56",
"I  c #0B2A54",
"U  c #02245B",
"Y  c #0A235B",
"T  c #042A5D",
"R  c #0A2C5C",
"E  c #0B2353",
"W  c #152A59",
"Q  c #0B335D",
"!  c #17335A",
"~  c #263758",
"^  c #252F52",
"/  c #021D62",
"(  c #041965",
")  c #012363",
"_  c #052B64",
"`  c #0A2D63",
"'  c #02246B",
"]  c #042C6C",
"[  c #0A2C6A",
"{  c #092364",
"}  c #152B67",
"|  c #0A3165",
" . c #0B326C",
".. c #07346C",
"X. c #183769",
"o. c #042E73",
"O. c #082B78",
"+. c #112D78",
"@. c #0C3473",
"#. c #0C3974",
"$. c #0D357B",
"%. c #0C3B7B",
"&. c #063579",
"*. c #133472",
"=. c #133A74",
"-. c #133B7D",
";. c #1A3978",
":. c #273965",
">. c #243B75",
",. c #1A417C",
"<. c #174278",
"1. c #14416F",
"2. c #26416C",
"3. c #384767",
"4. c #294679",
"5. c #364577",
"6. c #3B5278",
"7. c #2E415F",
"8. c #49597A",
"9. c #434A66",
"0. c #50617D",
"q. c #0C3981",
"w. c #133C82",
"e. c #1B3D83",
"r. c #173B89",
"t. c #142F82",
"y. c #124183",
"u. c #1C4383",
"i. c #1B448A",
"p. c #1A498B",
"a. c #1D4B93",
"s. c #1D4796",
"d. c #234B8C",
"f. c #264787",
"g. c #354D87",
"h. c #2A528D",
"j. c #355282",
"k. c #234B93",
"l. c #244B9B",
"z. c #274996",
"x. c #344D94",
"c. c #285399",
"v. c #365799",
"b. c #38639C",
"n. c #2B4EA2",
"m. c #264DA6",
"M. c #2B53A4",
"N. c #2B59A5",
"B. c #2A53AA",
"V. c #2856A8",
"C. c #345BAB",
"Z. c #3759A6",
"A. c #345BB3",
"S. c #385CB6",
"D. c #3052AC",
"F. c #3863A6",
"G. c #3B62B5",
"H. c #3D63BB",
"J. c #3F69B1",
"K. c #4A5F89",
"L. c #455997",
"P. c #4F6796",
"I. c #68779B",
"U. c #4866AA",
"Y. c #536AA7",
"T. c #4365BB",
"R. c #4669B7",
"E. c #5875BB",
"W. c #5372B2",
"Q. c #6677A8",
"!. c #657CBA",
"~. c #707CAC",
"^. c #455DA7",
"/. c #3863C1",
"(. c #436AC2",
"). c #486AC5",
"_. c #526FC8",
"`. c #4B71CA",
"'. c #4B72C5",
"]. c #5274CC",
"[. c #5977C7",
"{. c #4E76D5",
"}. c #5579D3",
"|. c #5B7CD5",
" X c #5A7CDA",
".X c #5675D4",
"XX c #4E6FD0",
"oX c #657BCA",
"OX c #667DD8",
"+X c #637FE0",
"@X c #6D84BA",
"#X c #5C81DA",
"$X c #5C81D4",
"%X c #5981CA",
"&X c #6984C8",
"*X c #7589C9",
"=X c #6C84D4",
"-X c #6282DB",
";X c #6B83DA",
":X c #6687D8",
">X c #738AD9",
",X c #7993D5",
"<X c #6C8AE3",
"1X c #6987E6",
"2X c #748DE6",
"3X c #6E93EC",
"4X c #7B94EC",
"5X c #7A95E7",
"6X c #7C97F3",
"7X c #778FF3",
"8X c #849BBD",
"9X c #889BCB",
"0X c #859BD6",
"qX c #92A8DB",
"wX c #849AEC",
"eX c #889AE8",
"rX c #8A9EF4",
"tX c #849AF5",
"yX c #8BA3E9",
"uX c #96A9EA",
"iX c #8BA6F7",
"pX c #92A5F4",
"aX c #97AAF7",
"sX c #9AB4FA",
"dX c #9EB2ED",
"fX c #A3B6EE",
"gX c #A2B4F6",
"hX c #ABBBFC",
"jX c #A8B7FA",
"kX c #B2BDFC",
"lX c #A0AFF1",
"zX c #ACC2FE",
"xX c #B4C3FE",
"cX c #BDCBFE",
"vX c #B6C5FF",
"bX c #B4CBF2",
"nX c #C3CCFE",
"mX c #C4CBFE",
"MX c #CBD4FD",
"NX c #CED9FE",
"BX c #C4D2FE",
"VX c #D5DDFE",
"CX c #D1D9FB",
"ZX c #DCE4FE",
"AX c #DBE5FF",
"SX c #E4EAFD",
"DX c #E5EAFC",
"FX c #EAF0FF",
/* pixels */
"4 7 @ . h h 0 5 d I ;.-.&.@.@.k.G.H.(.H.'.$X<X3XwXrXaXlXkXcXmXCXAXZXAXAXAXNXcXcXxXfXhXsXaXyXwX4X#X`.(.T.z.z.-.-.] F.F.) *.m f p ",
"4 w $ . h j g 1 i F ;.c.O.-.] @.D.H.J.H.H.].;X6XrXpXjXkXxXmXBXCXZXSXSXZXAXNXNXcXvXkXjXaXyX4X2X;X].H.S.R.Z.w._ _ b.a.%.u.B c l < ",
"3 w - . h j 7 y k S ,.d.e.-.=.o.s.B.S./.G.A.].6XrXaXjXkXcXMXCXCXZXDXDXDXZXAXNXBXmXkXkXlXaXiXrX6X-X'.A.Z.d.]  .u.u.d.c.U Y a d p ",
"% 4 - . g h u d s S ) u.k.p.) -.l.B.D.A.A.A.G.].2XrXjXkXbXCXCXZXDXDXDXDXDXZXAXAXCXmXkXjXaXpXrXwX}.'.T.k.+.C U #.d.v.T U n G p 4 ",
"$ = * o 6 u u i k Q [ ] w.d.) ..n.A.A.B.A.S.T.S..X>XsXxXnXNXCXZXDXFXFXDXDXSXZXVXCXMXmXjXpXrXtX2X-XR.k.' ) )  .u.d.] T L x d p g ",
"- = * @ 4 g u d s 2.v.@.] @.=.@.C.S.S.D.m.B.A.S.Z.[.yXxXBXNXCXZXDXDXFXFXSXSXVXMXmXmXkXjXpXrXwX2XS.k.] ) _  .-.u.=...B P G l J 6 ",
"= - * o 6 g h i k Q f.U.@...L =.).(.S.A.D.m.m.m.x.G.0XxXBXNXAXAXDXDXDXDXDXVXMXmXmXkXkXjXpXwXOX_.z.$.] _ .. .#.-.u...U I a u u j ",
"* * * - 9 u f d k n  .v.-.-.U  .T..X XXX).(.S.A.D.T.5XhXcXMXVXAXSXVXZXVXVXCXmXmXkXjXaXaXrX2X_.S.w.o.] ] #...-.%.@.=.L S D d f u ",
"* = = # < u p v S F U  .-.u.L U M.T.]. X<X#X#X#X`.$X6XsXkXmXMXCXnXNXNXcXBXmXkXkXhXaXaXrX7X|.`.S.r.&.] ..#.#.y.y.w.@.P S k s d p ",
"* = = % < q d d c F T @.w.w.U U c.B.C.(.$X].}.#X#X:X5XiXpXlXjXkXxXvXzXhXjXdXaXaXeX5X4X2X X(.(.S.q.#...#.%.%.y.y.%. .P S s s d d ",
"= = ; % < 0 p k c F T #.w.y.U U k.c.s.M.C.T.G.H./.'.|.;X2XeXeXeXpXsXpXpXrXeX5X;X;X.X.X_.(.S.S.T.u.=...%.<.q.y.q.@...P F c s i d ",
"= w 4 9 $ 6 d d S S T =.e.u.` U i.c.a.s.s.l.z.s.V.A.T._..XOXOX>X=X>X=X>X<XOXoX]..X_.`.S.S.A.G.T.p.<...&.y.y.y.$.@.` P S s s s d ",
"= w 4 9 $ 6 h d S F T =.i.i. .U p.a.c.k.z.r.s.s.s.m.V./.XX.XOXOXoX=X;X>X4X<X X1X].].XXT.S.S.S.Z.=.X.=.-.q.w.w.@. .Q P c s s p p ",
"= 4 9 0 & 6 d k S F P @.r.k.=.U y.c.a.c.r.d.f.i.s.N.A.H.`..XOX+X>X=X4X2X2X1XOX1XXX X.X(.H.T.S.;.L | *.-.q.t.%.#. .T E c c d p p ",
"< 9 0 0 & 7 p s k F P ..w.k.;.U u.a.p.k./ e.p.i.V.N.A.H.`. X+X1Xt.;.=XwXtX3X1X XXXOX.X).T.R.^.( x R *.;.w.$.%. .| I F c c d p i ",
"< 9 0 g & 6 l k k F F [ t.k.-.) a.p.k.u.C C p.a.a.N.N.N.XX+X1XwX( V =XrX7X2X7X}.T. X XXXT.T.T.V x I  .-.w.w.-.| R P G v d d p 7 ",
"9 0 6 g , 6 g j i G L ) %.i.u.) p.c.d.` c x f.z.s.s.&.a.{.1X7XwXB L E.iX6X6X1XN.t.}.#X{./.R.Y.b a I @.%.w.w.@.@.Q F M v j p 7 p ",
"< 9 g h , < g j d G L U %.i.d.) y.d.v.L M m x.m.V.&.U @. X1XaXeX:.b &X4XtX6X3Xl.' [.}.{.{.'.Y.a i ! #.%.-.w.$.[ T F m v g w 7 7 ",
"; 9 q g 3 4 0 j d m L U %.i.d.) ,.j.4.n M >.n.m.N.] L U }.7XrXeXoXZ =XpXtXtX3XZ.' [.|.1X].E.! f 5 J X.#.u.e.#._ T F m d p 8 7 i ",
"; 9 0 g 4 6 q h d c n T @.i.h.` ! I H a b x.n.B.N.<.F P v.2X5XpX0XZ X.Y.pXwX6X|.) !.-X#X}.y.M 5 3 5 G X.f.e. ._ P S c f p 7 7 8 ",
": 9 0 7 w w w p j c F U @.p.h.} a 5 5 5 E g.m.B.F.1.H F [ W.eXeXL.b A m N ,X5X[.Y W.=X<X#Xv.m j q 3 y m ;.;.| Q G n M d p 7 6 6 ",
"* 9 w 6 q 4 6 g d c F L ] u.g.R y 8 8 i m f.M.m.b...F F N ;.yXL.A M s M x Y.R.x.n X.U.-X;XW.r u 4 = < y ;.-.| P F S s s p 7 8 8 ",
": = w 4 q w 4 g d v F L ` u.h.G 1 0 - 8 y :.Z.c.c.T G L Y / *Xc d i l s c } t.' x I / =X:Xv.Z t < = % 2 >.-.| P S D s s p 7 4 8 ",
"= 4 4 3 q 4 4 q j i S F _ 4.4.s u 6 4 - 7 s v.c.h.B n B Y [ !.b s p 5 s ~.C x.{ m x C F.&XC 5.r 6 4 % 1 4.%.T P F v s d p 7 = = ",
": % 6 q 0 4 4 g h i F S R 4.H a K u 4 = 9 f Z x.h.X.L B C ^.4.c Q.y i M 0Xb &XC G c yX[ b.B Q.a 6 4 9 1 =.&.T L D d i p u 6 4 : ",
"= % 2 6 6 4 6 q h d s S F 2.s 1 3.2 3 = 0 2 b x.*.v.n n ) E.L c 9Xs d M @XB Y.Z b W sXb.L 4.@XM 5 3 l 5 ` @.P F S d p p 6 6 ; ; ",
"% % 6 0 0 < 6 6 p d k F F 1.i 3 l , 3 $ 9 g Z L.C b.R b C !.} >.9Xy y M L.R n c n 4.wX).) @XW.a 5 3 ~ d U | L F S i p 7 q 0 w ; ",
"# % 6 2 4 9 < 0 p p k S F ! 5 l $ 4 6 4 g f >.f.[ b.4.F B Y.>.P.qXf j f G Y.c G n L.5XH.c.&X!.f 5 3 2.W B | L F D d 7 7 0 w ; * ",
"# % < 4 4 4 0 q p d D s F G 5 K $ - $ 6 ~ f v.[ i.U.g.b m L.C *XqXf , 2 R 0XF 6.a !.5XO._.!.^.f 3 5 W :.x P F F D d q 9 0 9 9 = ",
"X # % 3 3 w 0 q g d D s n F y ~ % # $ , 8.x v.' l.U.>.M D 2.z 0XqXu g j f.jX2.3.2.Y.,X( .XOXL.t - 8 c >.a S G n s p 0 9 6 < 4 = ",
"X O % < = 4 w 0 g j s c L G a 3.% : 9 5 8.b ,.) N.M.>.b y k x *XqXe 2 t ^.2X:.3.~ 4.&X( OXoX:.f ; 3 x X.y v G c s p 0 9 0 2 3 = ",
"O # % = = w 9 0 h D c F n m t 9.% # % 6 8.` U ] M.M.+.b i d n Q.8Xf g M U.oX8.~ v G !.+.2XoX} y 4 3 r X.y d J d p k 0 9 < 6 4 % ",
"o o # % = = 9 6 i k S S c A , j $ > 0 j 6. .[ v.c.Z.*.M J p M 9X~.t h ^ *XgX~ K u ~ E.x.2X>XA f 1 5 y K 1 d v d d p 6 6 6 < < 9 ",
"o @ # = = 9 4 4 p k F F S d , 4 % < < K 4. .U.U.M.E.} m ^ y W qXQ.2 e ~ uXkX:.D ~ >.>X2X4X0Xv u p , 5 D 5 p p p h g q 6 < 9 < < ",
"o # # # ; 9 9 6 k k F F S v , $ $ % , ^ g.;.W.n.v.v.E G K K !.fX:.g ^ y dXgX>.E ^ b oX4X2X*Xy 5 3.y 5 k 5 d d p p g 6 4 4 4 > > ",
"o o # % % % 4 4 p s S F D D 1 $ = 3 2 5.!.[.[.M.T.v.n J 2.G !.fXf 2 I.u jXuX:.} L.b [.wX>X&Xi d 8.y y d y i j l p p 6 4 ; ; > % ",
"O @ # * % = 4 6 p s F S F D 7 < @ - t L.OXwX_.D.M.F.! ! P.R oXfXa h 8.f fXuXV Y.Y.Z [.4X-XE.e K 3.1 e D d d d p 7 7 4 4 4 : # * ",
"O O # # % = 4 6 p k F F G D p % - = r Q.OX1X.Xn.V.U.c 5 6.N oXuXe 6 K M jX0X( !.Y.C _.;X;XU.f ~ ~ 1 a J J d f p 6 6 0 4 ; % * # ",
"O O & $ % = 4 4 p k F c G d p , & $ r *X2X+X#XV.V.J.a s Y.N U.dXM K.K r jXeXC ,X!.N R.$X4XZ.z ~ K y e i d d y p 7 6 4 = = * * # ",
"X O @ # % % 9 6 p d D c G M h $ 9 < M *XtX7X$XV.N.W.S M g.V x.fXr I.K x jXuXV *X*XN v.-X4XZ.z :.D s 1 d d p 7 p 6 6 4 9 ; : # : ",
"X # @ # # = 4 4 u f D D c d 7 $ q , r *XeXtX-Xl.N.%X4.a x./ *.jXr I.5.z sXyX/ &X,XC r.|.6XJ.b K J 5 3 k p p g 7 6 4 4 % ; ; % # ",
"X . @ # # - = 9 q p v v v d 7 $ h 1 t L.rXiX-XN.N.E.2.M f.;.B fXM I.K.z vXaXV >X,X{ i.>XsXE.z v k 5 , p 7 p 7 9 4 0 9 < % % % % ",
"X X # @ @ * = 9 6 u v v d p 7 $ h 1 y ! *XiX:Xc.N.F.X.x >.P.b bXe 9.I.M dXsXO.wXoX} =.[.iXE.z j h 3 $ p 7 q q 9 6 9 % ; % > & & ",
"X X . @ @ * * ; 0 g j f d p 4 $ h 2 2 A 4.,X%X-.i.,.b e E Q.x bXy 0.K.M yX&Xt.[.Z.*.*.F.:XU.a p 7 4 - 7 q w w 9 9 = < % % # % # ",
"+ o o o @ * * ; 9 g g f p h 4 $ p 7 3 p L v.v.) @._ c x c K.s 8X1 5 ~ a Y.v.' v.f.Y b | u.X.y h 7 4 $ 7 q q 9 9 = ; * % % % & # ",
"+ o o o @ @ * : ; 0 g g u w w # 6 5 $ 5 S  .@./ C L c s e ^ 1 K.5 p ~ y 6.L / h.Y x F 1.;.C y g 7 7 $ 6 0 0 9 9 ; : % * # O # X ",
"X   o o o + * : ; 0 u u 6 w ; # 6 7 $ 8 H | ' ' U Q G s 1 p a 6.s , 6.1 F n B 4.G s k 1.<.n M j g q $ 4 9 9 ; 9 ; > * O o @ O X ",
"+ . + o o + * * ; < 0 6 6 w ; @ 6 7 = 4 H <.+.' L | D i 8 5 s ~ y i 7.y F L B 4.I S S X.4.B A u j q < 4 9 9 ; ; : % # * o o + + ",
"+ +   . o o # % * = = % 4 ; = # q q 4 5 X.=.-.( { W D i l 8 5 ! J 5 8.1 b.u.U h.Q F B X.X.a W v g w $ $ 9 9 ; > > % # # # @ X . ",
"    . . . . # # % : = ; 9 = # & q g 7 i Q 1.=.{ { W S 5 8 i c 6.f $ 7 a E.N.' p.1.P C *.X.a W D p 4 & # ; 9 : > # # & @ X . . . ",
"+     . X & O # # % = ; = # & & 0 g 8 5 H X. ._ Y b S d 5 k b 4.5 l 5 r c.(.O.a.-.L C *.X.M F D d 8 $ $ = ; % : # # X @ & o . . ",
"      . X X O # % % % % $ @ & # 0 p 7 5 s X...T n G S s y G C L.e p l t R.`.r.l.d.] o.e.X.n S D i 7 3 $ = : * * # O @ . . +     ",
"      . o   . @ % % = = * # # % g j q 5 i 1.Q L L n F F a X.e.L.i p ~ z [.{.m.N.c.w.p.i.X.B F I k p 8 3 = = * * o * # O o o     ",
"      + .     & # # * ; = % % $ 0 f q i k Q U L n F S F W ;.t.z.m y 6.x c.<Xm.G.c.q.r.a.h.<.P L S p 5 6 4 = o * * * @ o + .     ",
"        .   . . . # # % = % % $ 6 h 8 i S P P L n L R T x ) z.U.E y :.z M.T.J.N.y.p.C.F.d.=.) R S v p 5 4 3 * * O * o o O X . . ",
"      +       . o # # # # = = % 4 h 8 5 F H U ` | <.<.X.U C M.=X2.x :.z p.C.%X%Xo.y.V.V.a.-.o._ G v s u 7 w = = * o @ o o o . . ",
"            . . . O @ # % = % # 0 g 8 y G T ` ` _ _ | ..=.C $.U.E c ! z i.z.U.' &.y.V.m.a.y.o.) B c d f h 7 w = # o o o o o . X ",
"              . . # # # % : $ # 4 g 6 p H _ _ _ | #.#.%. .B ) -.S i X.B e.z.q.' a.m.V.V.l.y.$._ Y G v d p q 4 9 - - $ @ @ . X @ ",
"              + O # @ @ % % $ # 4 w 7 d I _ ` _ ) #.%.%.=._ U | H i Q N r.r.t.q.V.B.B.m.a.y.&._ E m c d h h 0 4 = - # # % @ . . ",
"              . . o . # # > % % 4 w 6 p E U _ ) @.p.y.,.<.f.h.b.H F | @.R.T.`.).`./.A.B.a.y...P G m d f p 7 q w w = % # # O & X ",
"              + . X O # % = = % - w 4 i G L U T  .-.%.y.d.h.d.v.F I ,._.>X2XOX(./././.m.p.#.U B n c d d h g 0 9 9 = % % # # X X ",
"                + O : # % : = % = 4 6 i n L L U ..#.%.y.h.d.%.@.P b i.'.1X<X|.(./././.B.p.<.` L m v d f p q 6 4 9 = $ # # X X X ",
"            .   o # # : % : : % = w 3 p S n F U | #.&.&.i.w.O.o.] / S..X7XOX).B.D.B.m.s.y.#.Y G S s p p u 6 4 4 4 = % # O O X X ",
"              . X O # # % = = = = w 3 p S F P P T #.q.&.r.w.q.$.' $.(..XOXOX'.C.B.l.s.i.,. .U n c d i i 6 6 4 4 4 % # # * X X X "
};
