/* XPM */
static char *_629044793712[] = {
/* columns rows colors chars-per-pixel */
"50 32 205 2 ",
"   c #030303",
".  c #0C0C0C",
"X  c #100D0D",
"o  c #141414",
"O  c #1C1C1C",
"+  c #1A1616",
"@  c #2B1B1B",
"#  c #2F1516",
"$  c #361C1D",
"%  c #2A1F20",
"&  c #381E20",
"*  c #1F2121",
"=  c #242424",
"-  c #2B2425",
";  c #2B2B2B",
":  c #322D2E",
">  c #392B2C",
",  c #372526",
"<  c #333333",
"1  c #3B3334",
"2  c #3A3B3B",
"3  c #373939",
"4  c #4C0D13",
"5  c #5D0E15",
"6  c #4C181B",
"7  c #4F1619",
"8  c #5A131A",
"9  c #7B0E19",
"0  c #7B0E18",
"q  c #69141B",
"w  c #75141D",
"e  c #461E22",
"r  c #551C22",
"t  c #5D1920",
"y  c #7C1922",
"u  c #771B23",
"i  c #6C1B23",
"p  c #4E2529",
"a  c #482528",
"s  c #5A2227",
"d  c #532428",
"f  c #512E31",
"g  c #453335",
"h  c #493738",
"j  c #5C3235",
"k  c #5A383B",
"l  c #5B3639",
"z  c #6F2429",
"x  c #752129",
"c  c #622F34",
"v  c #7D2931",
"b  c #613539",
"n  c #643539",
"m  c #74353B",
"M  c #5E3E40",
"N  c #653F43",
"B  c #743D43",
"V  c #434343",
"C  c #4C4C4C",
"Z  c #4A4545",
"A  c #544D4E",
"S  c #5A4A4C",
"D  c #564446",
"F  c #4F5050",
"G  c #535353",
"H  c #565858",
"J  c #5B5B5B",
"K  c #545857",
"L  c #674145",
"P  c #654F51",
"I  c #744E52",
"U  c #7C4C51",
"Y  c #6A5658",
"T  c #695557",
"R  c #7E575B",
"E  c #745558",
"W  c #794D4B",
"Q  c #5F6161",
"!  c #636464",
"~  c #6B6C6C",
"^  c #686666",
"/  c #776769",
"(  c #6D706F",
")  c #727373",
"_  c #7A7B7B",
"`  c #8E0512",
"'  c #8A0915",
"]  c #930412",
"[  c #9C0614",
"{  c #930916",
"}  c #9C0816",
"|  c #9B0E1C",
" . c #960D1A",
".. c #88111D",
"X. c #96121F",
"o. c #A20716",
"O. c #A50B1A",
"+. c #AE0919",
"@. c #A70718",
"#. c #B30D1D",
"$. c #BA0D1E",
"%. c #A5101F",
"&. c #8F1521",
"*. c #9D1521",
"=. c #9B1F2B",
"-. c #BD0E20",
";. c #AB1221",
":. c #AC1E2B",
">. c #A21724",
",. c #B41323",
"<. c #BC1A2B",
"1. c #B81728",
"2. c #81252D",
"3. c #9A232E",
"4. c #8B2933",
"5. c #932631",
"6. c #863038",
"7. c #AC222F",
"8. c #A22633",
"9. c #A52835",
"0. c #BE2232",
"q. c #BD2B3A",
"w. c #AA313E",
"e. c #A13337",
"r. c #B9363A",
"t. c #C00E20",
"y. c #C31224",
"u. c #CB1326",
"i. c #C91A2D",
"p. c #D3172B",
"a. c #D31D31",
"s. c #DB1E32",
"d. c #CC2436",
"f. c #C22A3A",
"g. c #C62334",
"h. c #DB2235",
"j. c #D52B3D",
"k. c #D62438",
"l. c #E4293D",
"z. c #E5263B",
"x. c #963A44",
"c. c #A83E49",
"v. c #B43E4B",
"b. c #BC3644",
"n. c #CA2F40",
"m. c #D92F41",
"M. c #CA3847",
"N. c #D33243",
"B. c #D93245",
"V. c #E62D41",
"C. c #EA3A4D",
"Z. c #E43548",
"A. c #84444B",
"S. c #9A444B",
"D. c #8F4D54",
"F. c #84595D",
"G. c #8B555B",
"H. c #9B545B",
"J. c #AE4F59",
"K. c #B44854",
"L. c #AA525B",
"P. c #B6515B",
"I. c #9B755E",
"U. c #8A5B60",
"Y. c #945B61",
"T. c #A45C63",
"R. c #A85860",
"E. c #BC5863",
"W. c #BC5660",
"Q. c #836669",
"!. c #846869",
"~. c #9F6268",
"^. c #907161",
"/. c #886F71",
"(. c #BC616A",
"). c #BE7179",
"_. c #A5686F",
"`. c #CA4C5A",
"'. c #D74958",
"]. c #E54556",
"[. c #F24A5C",
"{. c #DA5966",
"}. c #E95867",
"|. c #F15465",
" X c #C56C75",
".X c #CB7079",
"XX c #E9626F",
"oX c #EC6976",
"OX c #F26876",
"+X c #C07B82",
"@X c #828383",
"#X c #8D8E8D",
"$X c #949494",
"%X c #9A9A9A",
"&X c #A4A3A3",
"*X c #A9A1A2",
"=X c #B7A5A7",
"-X c #B2B3B3",
";X c #C49CA0",
":X c #C0A0A3",
">X c #C6B6B7",
",X c #C4C4C4",
"<X c #CFC3C4",
"1X c #D0CDCD",
"2X c None",
/* pixels */
"2X2X2X2X2X2X2X2X2X2X2X2X2X2X2X2X2X2X2X2X2X2X2X2X2X2X2X2X2X2X2X2X2X2X2X2X2X2X2X2X2X2X2X2X2X2X2X2X2X2X",
"2X2X2X2X2X2X2X2X2X2X2X2X2X2X2X2X2X2X2X2X2X2X2X2X2X2X2X2X2X2X2X2X2X2X2X2X2X2X2X2X2X2X2X2X2X2X2X2X2X2X",
"2X2X2X2X2X2X2X2X2X2X2X2X2X2X2X2X2X2X2X2X2X2X2X2X2X2X2X2X2X2X2X2X2X2X2X2X2X2X2X2X2X2X2X2X2X2X2X2X2X2X",
"2X2X2X2X2X2X2X2X2X2X2X2X2X2X2X2X2X2X2X2X2X2X2X2X2X2X2X2X2X2X2X2X2X2X2X2X2X2X2X2X2X2X2X2X2X2X2X2X2X2X",
"2X2X2X2X2X2X2X2X2X2X2X2X2X2X2X2X2X2X2X2X2X2X2X2X2X2X2X2X2X2X2X2X2X2X!.R T._.2X2X2X2X2X2X2X2X2X2X2X2X",
"2X2X2X2X2X2X2X2X2X2X2X2X2X2X2X2X2X2X2X2X2X2X+X X X.X.X X(.E.P.K.v.c.7.8.x.x.x.c.x.S.2X2X2X2X2X2X2X2X",
"2X2X2X2X2X2X2X2X2X2X2X2X2X2X2X2X2X2X2X=X>X>X-X*X&X%X#X@X_ ) ~ Q F z =.T ! Q 2 V D N A.`.2X2X2X2X2X2X",
"2X2X2X2X2X2X2X2X2X2X2X2X2X2X2X2X2X2X>X<X-X&X%X%X#X@X_ ) ^ ! J C g &.I ~ ~ ( C V C C F I E.2X2X2X2X2X",
"2X2X2X2X2X2X2X2X2X2X2X2X2X2X2X2X;X,X,X-X&X%X$X$X@X) _ ( ^ J F Z z 6.^ ) ) _ J Z A H F J G.2X2X2X2X2X",
"2X2X2X2X2X2X2X2X2X2X2X2X2X2X/.=X1X,X-X&X%X$X$X#X_ ~ ) ~ ! ! H l *.M J H J _ ~ C H J H H I `.2X2X2X2X",
"2X2X2X2X2X2X2X2X2X2X2X2X2XD.Q.( @X@X( Q C Z Q Y I R !.Q.U.R x.=.| > 2 3 < J _ C T U S.w.n.C.}.2X2X2X",
"2X2X2X2X2X2X2X2X2X}.{.(.~.R ^ H G S L m 4.9.r.j.B.B.M.f.0.,.#.,.{ 8 n N N A.D.w.f.k.l.k.B.[.OX2X2X2X",
"2X2X2X2X2X2XXXOXoXT.E H F C D m 5.7.i.h.l.Z.j.f.<.%.O.@.+.#.t.<.3.O.i.h.k.j.g.0.Z.C.].{.}.}.XX2X2X2X",
"2X2X2X2X2X}.|.[.B.K.x.e.8.8.<.u.u.p.s.a.<.%. ...y u | #.-.y.u.p.k.j.V.Z.Z.B.f.7.:.>.X.:.M.4.v 2X2X2X",
"2X2X2X2XE.T.R.L.L.T.L.K.v.b.b.q.u.<.3.v m I !.^.I.W ;.y.y.,.,.#.N.N.:.>.X.{ ] ] [ [ o.@.u < = 2X2X2X",
"2X2X2X'.B S P S P E S F.S G.A K.h.K.U.F.Y.H.S.e.r.g.u.| w t r p y O.[ [ [ [ o.o.o.o.o.} f +   2X2X2X",
"2X2X2Xm j h h g g k 1 k g n g 7.,.%.%.} o.@.+.y.s.z.,.d < ; ; * , | o.o.[ [ [ ] ] ] ] ' > 1 ; 2X2X2X",
"2X2X2XZ f b n k k n h n g j f w 8 7 s 7 7 w #.p.s.h.y : +       X w [ ] ] ` ` ` ] ] ] q < J G 2X2X2X",
"2X2X2X2 ; @ @ $ , 6 a e p 7 s g * 3 V ; ; = w s.l.i.p = + * + .   5 ` 0 0 ] ] } ..w q & 2 H C 2X2X2X",
"2X2X; < 3 2 2 2 3 3 < < < < 1 V ; ; * + + = , =.a.X., ; < 2 3 < + 4 ' ' { ..i d , = * = C J C 2X2X2X",
"2X2X2Xh < < 3 < 3 3 2 2 2 2 V 2 3 < ; = * O O , 9 8 ; 2 C 2 G 2 < 6 9 i p - O o X o o * C ! V 2X2X2X",
"2X2X2Xz # * ; ; ; < < < < 3 3 3 3 < ; ; = ; ; = - = < 3 C H Z 2 V : % O o X . o X . . O 3 H G 2X2X2X",
"2X2X2X2X= O O O o + + + + + 7 6 : 2 2 ; 2 C 3 O * O 3 < + V ; F < ; o . . X 2X2X2X2XX . ; F C 2X2X2X",
"2X2X2X2Xo o o o O O O * O O # @ O : V 2 ; ; + o O O ; C F J 3 C 2 ; o . 2X2X2X2X2X2X. . + V 2X2X2X2X",
"2X2X2X2X2X= + . . .   . . o o o + + o o . . . . o O 3 V C ! ; ; V ; . 2X2X2X2X2X        . 2X2X2X2X2X",
"2X2X2X2X2X2XO + o o . . . .                       @ ; * G C ! V 3 ; 2X2X2X2X2X2X2X2X2X2X2X2X2X2X2X2X",
"2X2X2X2X2X2X2Xo o o o . .     2X              . o = < 3 F ; C 3 < O 2X2X2X2X2X2X2X2X2X2X2X2X2X2X2X2X",
"2X2X2X2X2X2X2X2X  .     2X2X2X2X2X2X2X2X2X2X  . o * < < < < V 2 ; 2X2X2X2X2X2X2X2X2X2X2X2X2X2X2X2X2X",
"2X2X2X2X2X2X2X2X2X2X2X2X2X2X2X2X2X2X2X2X2X2X2X  . o * 2 V V 2 ; 2X2X2X2X2X2X2X2X2X2X2X2X2X2X2X2X2X2X",
"2X2X2X2X2X2X2X2X2X2X2X2X2X2X2X2X2X2X2X2X2X2X2X2X2X2XX + @ * O 2X2X2X2X2X2X2X2X2X2X2X2X2X2X2X2X2X2X2X",
"2X2X2X2X2X2X2X2X2X2X2X2X2X2X2X2X2X2X2X2X2X2X2X2X2X2X2X2X2X2X2X2X2X2X2X2X2X2X2X2X2X2X2X2X2X2X2X2X2X2X",
"2X2X2X2X2X2X2X2X2X2X2X2X2X2X2X2X2X2X2X2X2X2X2X2X2X2X2X2X2X2X2X2X2X2X2X2X2X2X2X2X2X2X2X2X2X2X2X2X2X2X"
};
