/* XPM */
static char *_629044137833[] = {
/* columns rows colors chars-per-pixel */
"25 59 57 1 ",
"  c #855E34",
". c #8D6840",
"X c #926B40",
"o c #95826E",
"O c #9D8C7B",
"+ c #A38C74",
"@ c #8C8580",
"# c #968C86",
"$ c #9B938E",
"% c #9E9690",
"& c #B09C88",
"* c #A09792",
"= c #A29A95",
"- c #AA9F96",
"; c #A69E99",
": c #A99F9A",
"> c #ABA29D",
", c #B6A799",
"< c #AEA6A1",
"1 c #AFA9A6",
"2 c #B0A6A2",
"3 c #B3A9A5",
"4 c #B4ACA9",
"5 c #B9AFAA",
"6 c #BBB0A4",
"7 c #B6B1AE",
"8 c #BCB2AD",
"9 c #BDB5B2",
"0 c #C2B09D",
"q c #C0B7B2",
"w c #C3BAB5",
"e c #C5BCBA",
"r c #C8BFBB",
"t c #CFC1B6",
"y c #C7C0BE",
"u c #CAC2BD",
"i c #CDC5C2",
"p c #CFC8C4",
"a c #CECACA",
"s c #D0C7C3",
"d c #D2CAC5",
"f c #D5CDCA",
"g c #D8CFCC",
"h c #D7D1CD",
"j c #D9D2CE",
"k c #D2CFD2",
"l c #D5D1D3",
"z c #DCD5D2",
"x c #DED9D5",
"c c #D7D5D9",
"v c #D9D6DB",
"b c #DDDADA",
"n c #E0DBD6",
"m c #E2DEDA",
"M c #E4E1DD",
"N c #DEDDE0",
"B c #E3DFE0",
/* pixels */
"ccvvvcvvvNvvvvvvvbvbbbvkl",
"cqizzxczxxcxxxbxbnmbxli1a",
"v4qgxnnnnxbxbxbbbmmbbl9<k",
"v49fzzcxczxxxxxxxxxxbk9%k",
"v4qflzzzzzzzxxxxxxxzvh7<l",
"v49fgzzczllzxlhlzzxjll7;c",
"v4qkganzxhfzxlhjbmxpjj9>c",
"v5qfgaznzafzxzfhbmxyhl9>c",
"v5qkgsvxxfsxxzlhnbbulz9;v",
"B5eggsxbbffbbzhzmmnuzc9<v",
"N5wgzsbxbffbbxfzmmnilz91N",
"N5elgsmxxfgxmxhzmmbpjz9>v",
"NqeggkmxBggnnvjzNmmplx9<v",
"b4ezgfxmmfgBmnczmMbpzze<v",
"B5ezzgvBxggnmnzzMMMpxx9<v",
"bqegzgBmBggnmnzzMMmpzxy<v",
"M8whhhnMMhhMMnjxMMmpxxw<x",
"M7exxhMnnhhMMnxnMMMpxxw<b",
"M7yxjhMMMhhnMnjnMMMpxxw<b",
"MqwxzhnMMhhnMnjxMMMdxxy<b",
"MqyxxdMMMhhMMnxxMMManny<b",
"m7yxxhMMMhhMMMxxMMMdxnw<c",
"m8yjjhMMMjjMMnjnMMMaxne<b",
"n8tzxhMMMhhMMnxnMMMhxxw1b",
"mqtzzfMMMjjMMnnnMMMuxxw<N",
"nquxxhMMMjjMMnjnMMMhxnw<N",
"mquzjhMMMjjMMnjjMMMuxxw<b",
"mquxzfMMMjjMMnnnMMMuxxt1N",
"xquzzhMMMjjMMnjxMMMtnnw1N",
"nqyzzhnnnjjMMnjjMMnhnu&-N",
"nqtznnnnnnnnMnxxnnMnn0XOc",
"nqtzMMMMMMMMMMMMMMMMM6.ob",
"x9uzmmmMBMnMMMnnnnjt6+ of",
"x0tznnmMMMMmmmMMnnt6Oo ou",
"jqyjnjnnnznnnnzjjuhzzt+Oh",
"n8ejgugjgddnnngdjjhtjzt-h",
"j8rgjdnnnjdnnngjnMnujz9,h",
"n6wjgdnnnjdnnnjjzMntjj9>h",
"j5wjgfnnnjdnnjjjMnMujjq>h",
"j5wggtnnndjjnjgjznztjj8>h",
"gqqgdsjnntgnnjggnnzujj8>k",
"g0qdfsznnjtnnjdgznztgg6>f",
"g5wgdsngjdtjjjdjnzjudg8>k",
"g4wfdrzgjddnjjdgjnzufd8>a",
"g4qsduznzdtznjddzzjtfd5;a",
"f3qfdugjjftjjjddjzjrdd5;f",
"g2qsdtgjjutjjjtjjjgedd5;a",
"g2qsurgjjutdjjtdjjgess4*a",
"a2qiiegfgerggsssgggqss3=a",
"a25iieaagrrgggrsgggers3=i",
"s25iiegsgeesasisagaeui3=i",
"i25yresgseeassrigssqru3*i",
"i24yeeagkeeaaieigkaeri2*y",
"y:4yeryiiyeiaiyaaaayrr2*y",
"y:4eiiiiiiyaiiiissiiie2$y",
"r:4eyiiiiiiiiiiiaissie2$e",
"r:4eiiyayyiiiiiaissiie>$e",
"e:4eyyayaiiaaaayssssye>$e",
"9#*:444444599449777971$@9"
};
