/* XPM */
static char *_629042989024[] = {
/* columns rows colors chars-per-pixel */
"50 43 88 1 ",
"  c #C00003",
". c #C10003",
"X c #C20003",
"o c #C30003",
"O c #C40003",
"+ c #C50003",
"@ c #C60003",
"# c #C70003",
"$ c #C00104",
"% c #C10104",
"& c #C20104",
"* c #C20205",
"= c #C30205",
"- c #C30306",
"; c #C40306",
": c #C50306",
"> c #C50407",
", c #C60407",
"< c #C80003",
"1 c #C90003",
"2 c #CA0003",
"3 c #CB0003",
"4 c #CC0003",
"5 c #CD0003",
"6 c #CE0003",
"7 c #CF0003",
"8 c #C60508",
"9 c #C70508",
"0 c #C80508",
"q c #C80609",
"w c #C90609",
"e c #CA0609",
"r c #CA070A",
"t c #CB070A",
"y c #CB080B",
"u c #CC080B",
"i c #CD080B",
"p c #CD090C",
"a c #D00003",
"s c #D10003",
"d c #D20003",
"f c #D30003",
"g c #D40003",
"h c #D50003",
"j c #D60003",
"k c #D70003",
"l c #D80003",
"z c #D90003",
"x c #DA0003",
"c c #DB0003",
"v c #DC0003",
"b c #DD0003",
"n c #DE0003",
"m c #DF0003",
"M c #E00003",
"N c #E00004",
"B c #E10004",
"V c #E20004",
"C c #E30004",
"Z c #E40004",
"A c #E50004",
"S c #E60004",
"D c #E70004",
"F c #E80004",
"G c #E90004",
"H c #EA0004",
"J c #EB0004",
"K c #EC0004",
"L c #ED0004",
"P c #EE0004",
"I c #EF0004",
"U c #F00004",
"Y c #F10004",
"T c #F20004",
"R c #F30004",
"E c #F40004",
"W c #F50004",
"Q c #F60004",
"! c #F70004",
"~ c #F80004",
"^ c #F90004",
"/ c #FA0004",
"( c #FB0004",
") c #FC0004",
"_ c #FD0004",
"` c #FE0004",
"' c #FF0004",
"] c None",
/* pixels */
"]]]]]]]]]]pii]]]]]]]]]]]]]]]]]]]]]]]]pii]]]]]]]]]]",
"]]]]]]]iirrrrrrp]]]]]]]]]]]]]]]]]]iyrrrrrii]]]]]]]",
"]]]]]]irr8,,,,88ry]]]]]]]]]]]]]]irr,,8,r,rri]]]]]]",
"]]]]prr8,,%%%%%,,8ri]]]]]]]]]]irr;;;%%%;;,,rip]]]]",
"]]]]ir,;;       %%8rr]]]]]]]]i8,;%      %%;rri]]]]",
"]]]ir,;%  O3333OO%%%8ri]]]]ir8%%  3O3O3O %%;,,i]]]",
"]]irr,%  O3777aa73O %,ii]]ir,%%;7777a77OO  %;rri]]",
"]]rr;%   37aajjjjaa3; ;ryir, O3aajjxjaa77O  ;;rr]]",
"]ir8;  O37ajxxbbbxxa7O%,rr,%O7axbbbbxxja73O  ;,ri]",
"]ir,; O37ajxbBBDDDBbjaO%;%%OaxbBBDDBBbxja73  ;;ri]",
"]i8;% O37jxbBDFFFLLDBxaO%%3axBDFLLFFDmbxj73O %;ri]",
"]rr;% O3ajbBDFLUUQUUFBxaOO7xBFUUUQULDDBbxa33O%;,r]",
"pr,% O37jxbDDLUQ^^^QULDxa7xDLU^^^QQLLDDbxa73O ;,rp",
"iir% O37jxbDFUU^'''''^LDxxDL^'''''^QUFDMxj73O %rrp",
"prr; O3ajbBDLU^'''''''^UDDU^''''''^^ULFBxj73O %rip",
"]r,% O3ajxBFLQ^''''''''^LL^''''''''^QLFBxj73O %8r]",
"]i,;% 3ajbBFLQ^'''''''''Q^'''''''''^QLFBbja3O%-,y]",
"]ir;% 37jbBDLU'''''''''''''''''''''^QLFBbj73O%,ri]",
"]ir;%%O7axMDLQ^''''''''''''''''''''^ULDbxa3O %;ri]",
"]]rr;% 3axbDFU^''''''''''''''''''''QULDbxa7 %%ri]]",
"]]ir;% 37jxBDLQ^''''''''''''''''''^QLFBxj73 %,rr]]",
"]]]ir;% OajbBDUQ''''''''''''''''''QUFBbj7O  %ri]]]",
"]]]ir,;%O3axbDLUQ''''''''''''''''QULDbja3O ;rri]]]",
"]]]]ir,% O7axMDFU^''''''''''''''^ULDbxj7O ;,rr]]]]",
"]]]]]i8,% 37axBDLU^''''''''''''^ULDBxj7O %;ri]]]]]",
"]]]]]]rr;% 37jxBFLQ^''''''''''^ULDBxj73 %;,r]]]]]]",
"]]]]]]ir,; ;37jxBDLUQ''''''''^ULDBxj73  ;rri]]]]]]",
"]]]]]]]ir,;% 37jxBFFUQ'''''^QULFBxj7OO%;,ri]]]]]]]",
"]]]]]]]]ir8%%O3ajxbDLUQ^''^QUFDMxj73;%;8ri]]]]]]]]",
"]]]]]]]]]ir8%% 37jxbBFUQ^^QUFDMxj7OO %,ri]]]]]]]]]",
"]]]]]]]]]]irr%% O7axbDFLUQLFDbxa7O %;,ry]]]]]]]]]]",
"]]]]]]]]]]]rrr;% 37axbBFLFFBxxa73O%;,ri]]]]]]]]]]]",
"]]]]]]]]]]]]ir8;% O7axxMDDbbja7O %;rri]]]]]]]]]]]]",
"]]]]]]]]]]]]]irr;% O37jxbbxja3O %;,ri]]]]]]]]]]]]]",
"]]]]]]]]]]]]]]ir8,%  37axja73  %,8ii]]]]]]]]]]]]]]",
"]]]]]]]]]]]]]]]]ir,;% 33aa33O%;;ri]]]]]]]]]]]]]]]]",
"]]]]]]]]]]]]]]]]]ir8;  O33O %;8ry]]]]]]]]]]]]]]]]]",
"]]]]]]]]]]]]]]]]]]rr,;;%O   ;rri]]]]]]]]]]]]]]]]]]",
"]]]]]]]]]]]]]]]]]]]iir;%%%%;rri]]]]]]]]]]]]]]]]]]]",
"]]]]]]]]]]]]]]]]]]]]]ir8;;rrr]]]]]]]]]]]]]]]]]]]]]",
"]]]]]]]]]]]]]]]]]]]]]]ir,rri]]]]]]]]]]]]]]]]]]]]]]",
"]]]]]]]]]]]]]]]]]]]]]]]iryi]]]]]]]]]]]]]]]]]]]]]]]",
"]]]]]]]]]]]]]]]]]]]]]]]]]]]]]]]]]]]]]]]]]]]]]]]]]]"
};
